<svg width="301" height="160" viewBox="0 0 301 160" fill="none" xmlns="http://www.w3.org/2000/svg">
<path opacity="0.2" d="M270 158V93.314H255.267V63.5352H253.189V80.6033H247.523V75.8826H237.323V59.5405H235.435V39.5671H233.923V59.1778H230.334V88.23H223.535V59.1778H211.257V83.7463H198.368V53.9681H196.291V71.0362H190.624V66.3155H180.424V49.9734H178.536V30H177.024V49.6101H173.435V78.6623H166.636V49.6101H154.358V77.7123H146.079V61.3702H144.19V41.3968H142.679V61.0075H139.09V90.059H132.291V61.0075H120.013V90.059H113.969V93.314H103.38V63.5352H101.303V80.6033H95.6363V75.8826H85.4365V59.5405H83.5477V39.5671H82.0362V59.1778H78.7427V57.5422H66.465V59.1778H59.6656V57.5422H56.0769V37.9321H54.5654V57.9055H52.6765V74.247H42.4774V78.9683H36.8102V61.9002H34.7329V91.6784H20V158H270Z" fill="#C7E6FF"/>
<path d="M211.803 40.6691H199.289V47.931H211.803V40.6691Z" fill="#263238"/>
<path opacity="0.4" d="M211.803 40.6691H199.289V47.931H211.803V40.6691Z" fill="white"/>
<path opacity="0.4" d="M211.802 40.6691H204.918V47.931H211.802V40.6691Z" fill="white"/>
<path d="M198.49 40.6691H185.977V47.931H198.49V40.6691Z" fill="#263238"/>
<path opacity="0.4" d="M198.49 40.6691H185.977V47.931H198.49V40.6691Z" fill="white"/>
<path opacity="0.4" d="M198.49 40.6691H191.605V47.931H198.49V40.6691Z" fill="white"/>
<path d="M133.435 40.669H80.5742V47.9309H133.435V40.669Z" fill="#263238"/>
<path opacity="0.4" d="M133.435 40.669H80.5742V47.9309H133.435V40.669Z" fill="white"/>
<path opacity="0.4" d="M133.432 40.6691H104.352V47.931H133.432V40.6691Z" fill="white"/>
<path d="M214.835 136.159H77.043V159.263H214.835V136.159Z" fill="#263238"/>
<path opacity="0.3" d="M214.835 136.159H77.043V159.263H214.835V136.159Z" fill="white"/>
<path opacity="0.3" d="M214.837 136.159H105.785V159.263H214.837V136.159Z" fill="white"/>
<path opacity="0.2" d="M178.628 139.586H144.402V159.263H178.628V139.586Z" fill="black"/>
<path d="M141.075 141.869H134.824V157.789H141.075V141.869Z" fill="#407BFF"/>
<path d="M132.829 141.869H126.578V157.789H132.829V141.869Z" fill="#407BFF"/>
<path d="M124.587 141.869H118.336V157.789H124.587V141.869Z" fill="#407BFF"/>
<path d="M116.341 141.869H110.09V157.789H116.341V141.869Z" fill="#407BFF"/>
<path d="M212.224 141.869H205.973V157.789H212.224V141.869Z" fill="#407BFF"/>
<path d="M203.978 141.869H197.727V157.789H203.978V141.869Z" fill="#407BFF"/>
<path d="M195.735 141.869H189.484V157.789H195.735V141.869Z" fill="#407BFF"/>
<path d="M187.489 141.869H181.238V157.789H187.489V141.869Z" fill="#407BFF"/>
<path d="M103.959 141.869H98.9258V157.789H103.959V141.869Z" fill="#407BFF"/>
<path d="M97.322 141.869H92.2891V157.789H97.322V141.869Z" fill="#407BFF"/>
<path d="M90.6814 141.869H85.6484V157.789H90.6814V141.869Z" fill="#407BFF"/>
<path d="M84.0447 141.869H79.0117V157.789H84.0447V141.869Z" fill="#407BFF"/>
<g opacity="0.5">
<path d="M141.075 141.869H134.824V157.789H141.075V141.869Z" fill="white"/>
<path d="M132.829 141.869H126.578V157.789H132.829V141.869Z" fill="white"/>
<path d="M124.587 141.869H118.336V157.789H124.587V141.869Z" fill="white"/>
<path d="M116.341 141.869H110.09V157.789H116.341V141.869Z" fill="white"/>
</g>
<g opacity="0.5">
<path d="M212.224 141.869H205.973V157.789H212.224V141.869Z" fill="white"/>
<path d="M203.978 141.869H197.727V157.789H203.978V141.869Z" fill="white"/>
<path d="M195.735 141.869H189.484V157.789H195.735V141.869Z" fill="white"/>
<path d="M187.489 141.869H181.238V157.789H187.489V141.869Z" fill="white"/>
</g>
<g opacity="0.5">
<path d="M103.959 141.869H98.9258V157.789H103.959V141.869Z" fill="white"/>
<path d="M97.322 141.869H92.2891V157.789H97.322V141.869Z" fill="white"/>
<path d="M90.6814 141.869H85.6484V157.789H90.6814V141.869Z" fill="white"/>
<path d="M84.0447 141.869H79.0117V157.789H84.0447V141.869Z" fill="white"/>
</g>
<g opacity="0.5">
<path d="M176.65 141.869H170.43V157.789H176.65V141.869Z" fill="white"/>
<path d="M168.447 141.869H162.227V157.789H168.447V141.869Z" fill="white"/>
<path d="M160.244 141.869H144.402V157.789H160.244V141.869Z" fill="white"/>
</g>
<path opacity="0.1" d="M178.628 139.586L166.695 159.263H144.402V139.586H178.628Z" fill="black"/>
<path d="M104.896 47.9309H75.3828V135.528H104.896V47.9309Z" fill="#407BFF"/>
<path opacity="0.4" d="M104.896 47.9309H75.3828V135.528H104.896V47.9309Z" fill="white"/>
<path opacity="0.1" d="M79.0781 47.9309V135.528" stroke="black" stroke-miterlimit="10"/>
<path opacity="0.1" d="M83.3516 47.9309V135.528" stroke="black" stroke-miterlimit="10"/>
<path opacity="0.1" d="M87.625 47.9309V135.528" stroke="black" stroke-miterlimit="10"/>
<path opacity="0.1" d="M91.9062 47.9309V135.528" stroke="black" stroke-miterlimit="10"/>
<path opacity="0.1" d="M96.1797 47.9309V135.528" stroke="black" stroke-miterlimit="10"/>
<path opacity="0.1" d="M100.457 47.9309V135.528" stroke="black" stroke-miterlimit="10"/>
<g opacity="0.1">
<path d="M88.9866 47.9289L75.3789 69.8733V59.2489L82.3966 47.9289H88.9866Z" fill="white"/>
<path d="M96.7875 47.9289L75.3789 82.4506V79.3539L94.8656 47.9289H96.7875Z" fill="white"/>
</g>
<g opacity="0.1">
<path d="M104.892 73.6655V84.2899L75.3789 131.889V121.264L104.892 73.6655Z" fill="white"/>
<path d="M104.891 93.7756V96.8774L80.927 135.526H79L104.891 93.7756Z" fill="white"/>
</g>
<path d="M217.001 44.504H103.172V139.585H217.001V44.504Z" fill="#407BFF"/>
<path d="M71.9998 139.585H103.172V132.732H71.9998V139.585Z" fill="#407BFF"/>
<path d="M71.9998 51.3575L103.172 51.3575V44.5036H71.9998V51.3575Z" fill="#407BFF"/>
<path d="M71.9998 69.0029H103.172V62.149H71.9998V69.0029Z" fill="#407BFF"/>
<path d="M71.9998 86.6489H103.172V79.7951H71.9998V86.6489Z" fill="#407BFF"/>
<path d="M71.9998 104.294H103.172V97.4406H71.9998V104.294Z" fill="#407BFF"/>
<path d="M71.9998 121.94H103.172V115.086H71.9998V121.94Z" fill="#407BFF"/>
<g opacity="0.6">
<path d="M71.9998 139.585H103.172V132.732H71.9998V139.585Z" fill="white"/>
<path d="M71.9998 51.3575L103.172 51.3575V44.5036H71.9998V51.3575Z" fill="white"/>
<path d="M71.9998 69.0029H103.172V62.149H71.9998V69.0029Z" fill="white"/>
<path d="M71.9998 86.6489H103.172V79.7951H71.9998V86.6489Z" fill="white"/>
<path d="M71.9998 104.294H103.172V97.4406H71.9998V104.294Z" fill="white"/>
<path d="M71.9998 121.94H103.172V115.086H71.9998V121.94Z" fill="white"/>
</g>
<path opacity="0.6" d="M217.001 44.504H103.172V139.585H217.001V44.504Z" fill="white"/>
<path opacity="0.4" d="M217.001 44.504H106.836V139.585H217.001V44.504Z" fill="white"/>
<path d="M179.462 44.504H144.402V139.585H179.462V44.504Z" fill="#407BFF"/>
<path d="M213.255 51.3552H182.273V132.734H213.255V51.3552Z" fill="#407BFF"/>
<path opacity="0.5" d="M213.255 51.3552H182.273V132.734H213.255V51.3552Z" fill="white"/>
<g opacity="0.1">
<path d="M186.934 51.3574V132.732" stroke="black" stroke-miterlimit="10"/>
<path d="M192.352 51.3574V132.732" stroke="black" stroke-miterlimit="10"/>
<path d="M197.766 51.3574V132.732" stroke="black" stroke-miterlimit="10"/>
<path d="M203.18 51.3574V132.732" stroke="black" stroke-miterlimit="10"/>
<path d="M208.594 51.3574V132.732" stroke="black" stroke-miterlimit="10"/>
<path d="M213.256 51.3574H182.273V132.732H213.256V51.3574Z" stroke="black" stroke-miterlimit="10"/>
<path d="M213.256 62.1498H182.273" stroke="black" stroke-miterlimit="10"/>
<path d="M182.273 69.0031H213.256" stroke="black" stroke-miterlimit="10"/>
<path d="M213.256 79.795H182.273" stroke="black" stroke-miterlimit="10"/>
<path d="M182.273 86.6488H213.256" stroke="black" stroke-miterlimit="10"/>
<path d="M213.256 97.4407H182.273" stroke="black" stroke-miterlimit="10"/>
<path d="M182.273 104.295H213.256" stroke="black" stroke-miterlimit="10"/>
<path d="M213.256 115.086H182.273" stroke="black" stroke-miterlimit="10"/>
<path d="M182.273 121.94H213.256" stroke="black" stroke-miterlimit="10"/>
</g>
<g opacity="0.1">
<path d="M213.255 69.4714V80.0958L182.273 130.059V119.43L213.255 69.4714Z" fill="white"/>
<path d="M213.258 89.5764V92.6782L188.423 132.734H186.496L213.258 89.5764Z" fill="white"/>
</g>
<g opacity="0.1">
<path d="M213.257 111.042V121.666L206.393 132.734H199.809L213.257 111.042Z" fill="white"/>
<path d="M213.258 131.147V132.734H212.273L213.258 131.147Z" fill="white"/>
</g>
<path d="M141.583 51.3552H110.602V132.734H141.583V51.3552Z" fill="#407BFF"/>
<path opacity="0.5" d="M141.583 51.3552H110.602V132.734H141.583V51.3552Z" fill="white"/>
<g opacity="0.1">
<path d="M115.266 51.3573V132.732" stroke="black" stroke-miterlimit="10"/>
<path d="M120.68 51.3573V132.732" stroke="black" stroke-miterlimit="10"/>
<path d="M126.094 51.3573V132.732" stroke="black" stroke-miterlimit="10"/>
<path d="M131.508 51.3573V132.732" stroke="black" stroke-miterlimit="10"/>
<path d="M136.922 51.3573V132.732" stroke="black" stroke-miterlimit="10"/>
<path d="M141.585 51.3573H110.602V132.732H141.585V51.3573Z" stroke="black" stroke-miterlimit="10"/>
<path d="M141.585 62.1498H110.602" stroke="black" stroke-miterlimit="10"/>
<path d="M110.602 69.0031H141.585" stroke="black" stroke-miterlimit="10"/>
<path d="M141.585 79.795H110.602" stroke="black" stroke-miterlimit="10"/>
<path d="M110.602 86.6487H141.585" stroke="black" stroke-miterlimit="10"/>
<path d="M141.585 97.4406H110.602" stroke="black" stroke-miterlimit="10"/>
<path d="M110.602 104.294H141.585" stroke="black" stroke-miterlimit="10"/>
<path d="M141.585 115.086H110.602" stroke="black" stroke-miterlimit="10"/>
<path d="M110.602 121.94H141.585" stroke="black" stroke-miterlimit="10"/>
</g>
<g opacity="0.1">
<path d="M124.992 51.3552L110.602 74.562V63.9428L118.408 51.3552H124.992Z" fill="white"/>
<path d="M132.798 51.3552L110.602 87.1496V84.0478L130.871 51.3552H132.798Z" fill="white"/>
</g>
<g opacity="0.1">
<path d="M141.583 75.9995V86.6188L112.992 132.734H110.602V125.958L141.583 75.9995Z" fill="white"/>
<path d="M141.585 96.0994V99.2063L120.794 132.734H118.867L141.585 96.0994Z" fill="white"/>
</g>
<path opacity="0.7" d="M179.462 44.504H144.402V139.585H179.462V44.504Z" fill="white"/>
<path d="M196.762 135.526H195.216H160.495H160.494H158.947H144.402V139.585H158.947V159.264H160.494H161.374H162.921V139.587H192.789V159.264H194.336H195.216H196.762V139.585V135.526Z" fill="#407BFF"/>
<path opacity="0.3" d="M196.761 135.526V159.264H194.334V139.587H162.919V159.264H160.492V135.526H196.761Z" fill="white"/>
<path d="M155.211 79.795H148.145V132.733H155.211V79.795Z" fill="#407BFF"/>
<path d="M165.523 79.795H158.457V132.733H165.523V79.795Z" fill="#407BFF"/>
<path d="M175.832 79.795H168.766V132.733H175.832V79.795Z" fill="#407BFF"/>
<g opacity="0.5">
<path d="M155.211 79.795H148.145V132.733H155.211V79.795Z" fill="white"/>
<path d="M165.523 79.795H158.457V132.733H165.523V79.795Z" fill="white"/>
<path d="M175.832 79.795H168.766V132.733H175.832V79.795Z" fill="white"/>
</g>
<path d="M172.557 59.6208H171.526H165.39V52.4537H164.359H159.613H158.581V59.6208H152.446H151.414V65.3983H152.446H158.581V72.5654H159.613H164.359H165.39V65.3983H171.526H172.557V59.6208Z" fill="#407BFF"/>
<path opacity="0.3" d="M152.446 59.6219H151.41V65.3978H152.446V59.6219Z" fill="black"/>
<path opacity="0.3" d="M159.616 52.4552H158.586V59.6223H159.616V52.4552Z" fill="black"/>
<path opacity="0.3" d="M159.616 65.3983H158.586V72.5654H159.616V65.3983Z" fill="black"/>
<path d="M52 24.2698C52 21.1053 49.3961 18.5396 46.1844 18.5396C45.6033 18.5396 45.0437 18.6262 44.5144 18.7819C44.5992 18.2075 44.6447 17.6206 44.6447 17.0224C44.6447 10.3202 39.1307 4.88722 32.3287 4.88722C31.5535 4.88722 30.7959 4.96137 30.0599 5.09657C28.1667 2.04424 24.7641 0 20.8683 0C14.9711 0 10.1875 4.66853 10.1003 10.4586C10.0402 10.4573 9.9814 10.4498 9.9207 10.4498C4.44152 10.4498 0 14.8262 0 20.2249C0 25.6237 4.44152 30 9.9207 30H46.3552L46.3476 29.9919C49.4839 29.9059 52 27.3801 52 24.2698Z" fill="#EBF6FF"/>
<path d="M301 56.2246C301 53.5872 298.847 51.4491 296.191 51.4491C295.71 51.4491 295.247 51.521 294.809 51.6516C294.879 51.1723 294.918 50.6837 294.918 50.1851C294.918 44.6005 290.358 40.0732 284.734 40.0732C284.092 40.0732 283.466 40.135 282.858 40.2475C281.292 37.7039 278.479 36 275.257 36C270.381 36 266.425 39.8907 266.352 44.7155C266.302 44.7143 266.254 44.708 266.204 44.708C261.673 44.708 258 48.355 258 52.8537C258 57.353 261.673 61 266.204 61H296.332L296.326 60.9931C298.919 60.9213 301 58.8163 301 56.2246Z" fill="#EBF6FF"/>
</svg>
