<svg width="19" height="20" viewBox="0 0 19 20" fill="none" xmlns="http://www.w3.org/2000/svg">
<g clip-path="url(#clip0_1032_8630)">
<path d="M18.3661 18.8666L13.2995 13.8M8.23281 16.3333C7.23477 16.3333 6.24649 16.1367 5.32442 15.7548C4.40234 15.3728 3.56453 14.813 2.8588 14.1073C2.15308 13.4016 1.59326 12.5638 1.21133 11.6417C0.829392 10.7196 0.632813 9.73135 0.632812 8.7333C0.632813 7.73525 0.829392 6.74698 1.21133 5.82491C1.59326 4.90283 2.15308 4.06501 2.8588 3.35929C3.56453 2.65356 4.40234 2.09375 5.32442 1.71182C6.24649 1.32988 7.23477 1.1333 8.23281 1.1333C10.2485 1.1333 12.1815 1.93401 13.6068 3.35929C15.0321 4.78457 15.8328 6.71766 15.8328 8.7333C15.8328 10.7489 15.0321 12.682 13.6068 14.1073C12.1815 15.5326 10.2485 16.3333 8.23281 16.3333Z" stroke="black"/>
</g>
<defs>
<clipPath id="clip0_1032_8630">
<rect width="19" height="19" fill="white" transform="translate(0 0.5)"/>
</clipPath>
</defs>
</svg>
