<svg width="303" height="123" viewBox="0 0 303 123" fill="none" xmlns="http://www.w3.org/2000/svg">
<g style="mix-blend-mode:luminosity">
<path d="M213.634 73.9023H196.031V95.249H213.634V73.9023Z" fill="#263238" stroke="#263238" stroke-width="0.2" stroke-miterlimit="10" stroke-linecap="round" stroke-linejoin="round"/>
<path d="M226.879 47.8506L224.934 53.5493L228.131 54.477L226.879 47.8506Z" fill="#3AB7F7" stroke="#263238" stroke-width="0.2" stroke-miterlimit="10" stroke-linecap="round" stroke-linejoin="round"/>
<path d="M228.497 84.6548C228.497 84.6548 228.18 101.852 228.815 106.692C229.45 111.532 237.386 128.626 238.021 131.098C238.656 133.569 240.666 139.439 240.666 139.439C240.666 139.439 239.502 141.704 239.714 142.837C239.925 143.969 239.925 144.896 239.925 144.896C239.925 144.896 240.454 145.308 237.809 146.75C235.163 148.191 230.19 149.015 230.084 150.148C229.978 151.28 231.142 152.002 232.412 152.207C233.682 152.413 237.809 151.898 238.549 151.796C239.29 151.693 246.168 150.56 247.438 150.56C248.708 150.56 249.555 151.074 249.978 148.397C250.401 145.72 249.132 140.262 249.132 140.262C249.132 140.262 248.603 131.921 246.698 125.33C244.793 118.74 240.984 105.044 241.195 104.323C241.407 103.602 241.936 85.0662 241.936 85.0662L228.497 84.6548Z" fill="#3AB7F7" stroke="#263238" stroke-width="0.2" stroke-miterlimit="10" stroke-linecap="round" stroke-linejoin="round"/>
<path d="M236.756 85.2729C236.756 85.2729 237.073 103.294 238.237 108.34C239.401 113.386 240.459 128.317 240.565 130.377C240.671 132.437 240.671 139.13 240.671 139.439C240.671 139.748 240.248 146.133 240.248 146.133C240.248 146.133 237.496 147.987 236.332 148.81C235.168 149.634 231.677 150.149 231.57 150.973C231.464 151.797 233.475 153.65 235.274 153.959C237.073 154.268 247.232 152.723 248.396 152.723C249.56 152.723 251.359 152.517 251.888 152.312C252.417 152.106 252.523 150.973 252.523 149.634C252.523 148.296 252.311 147.06 252.523 145.927C252.735 144.795 253.581 133.879 253.052 128.421C252.523 122.963 251.041 117.506 251.147 111.533C251.253 105.56 252.417 99.7933 252.84 96.292C253.264 92.7907 254.745 84.2437 254.745 84.2437L236.756 85.2729Z" fill="#3AB7F7" stroke="#263238" stroke-width="0.2" stroke-miterlimit="10" stroke-linecap="round" stroke-linejoin="round"/>
<path d="M229.473 86.6482L236.432 88.2285L248.03 86.1968L229.473 86.6482Z" fill="#263238" stroke="#263238" stroke-width="0.2" stroke-miterlimit="10" stroke-linecap="round" stroke-linejoin="round"/>
<path d="M249.562 122.821C249.919 123.449 250.266 124 250.597 124.456" stroke="#263238" stroke-width="0.2" stroke-miterlimit="10" stroke-linecap="round" stroke-linejoin="round"/>
<path d="M241.117 101.922C241.117 101.922 245.049 113.815 248.519 120.839" stroke="#263238" stroke-width="0.2" stroke-miterlimit="10" stroke-linecap="round" stroke-linejoin="round"/>
<path d="M203.965 71.125H193.833V73.1063H193.877V117.257H153.402V118.325H193.877V127.355H195.277V118.325V117.257V73.1063H203.965V71.125Z" fill="#CFCFCF"/>
<path d="M205.907 70.582H197.074V73.7261H205.907V70.582Z" fill="#263238" stroke="#263238" stroke-width="0.2" stroke-miterlimit="10" stroke-linecap="round" stroke-linejoin="round"/>
<path d="M190.04 103.151C177.253 103.151 166.887 114.239 166.887 127.918C166.887 141.597 177.253 152.685 190.04 152.685C202.827 152.685 213.194 141.597 213.194 127.918C213.194 114.239 202.827 103.151 190.04 103.151ZM190.04 150.05C178.614 150.05 169.35 140.141 169.35 127.918C169.35 115.695 178.614 105.786 190.04 105.786C201.467 105.786 210.73 115.695 210.73 127.918C210.73 140.141 201.467 150.05 190.04 150.05Z" fill="#CFCFCF"/>
<path d="M210.389 137.46H207.86C209.345 134.639 210.196 131.385 210.196 127.918C210.196 117.157 202.041 108.434 191.982 108.434C187.649 108.434 183.671 110.056 180.544 112.758H173.262V113.62H179.613C176.02 117.179 173.768 122.266 173.768 127.918C173.768 134.392 176.722 140.125 181.265 143.668H174.37V144.53H182.266V144.395C185.079 146.297 188.409 147.401 191.982 147.401C198.464 147.401 204.151 143.777 207.379 138.322H210.389V137.46ZM208.926 127.918C208.926 132.45 207.367 136.591 204.796 139.769L197.703 129.624C197.931 129.081 198.062 128.478 198.062 127.842C198.062 126.326 197.338 124.997 196.248 124.234L198.363 111.127C204.557 113.823 208.926 120.323 208.926 127.918ZM191.982 109.793C193.515 109.793 195 110.015 196.413 110.423C196.118 111.695 194.347 119.323 193.324 123.645C191.62 124.031 190.325 125.619 190.208 127.557C185.98 128.993 177.454 131.572 175.509 132.158C175.204 130.797 175.038 129.378 175.038 127.918C175.038 117.908 182.624 109.793 191.982 109.793ZM176.249 134.647L191.438 130.963C192.142 131.683 193.087 132.128 194.128 132.128C194.595 132.128 195.042 132.034 195.457 131.871L203.12 141.57C200.141 144.353 196.247 146.043 191.982 146.043C184.848 146.043 178.748 141.324 176.249 134.647Z" fill="#CFCFCF"/>
<path d="M226.738 53.3332L224.744 58.4545C224.744 58.4545 208.17 66.2097 206.635 67.0878C205.1 67.9659 198.501 70.0142 198.501 70.0142C198.501 70.0142 197.427 74.5502 198.041 74.843C198.655 75.1359 199.882 75.1359 199.882 75.1359L201.417 73.9653C201.417 73.9653 203.719 74.2578 204.18 74.1115C204.64 73.9653 205.917 70.5817 205.917 70.5817L228.274 65.332L229.041 51.4312L226.738 53.3332Z" fill="white" stroke="#263238" stroke-width="0.2" stroke-miterlimit="10" stroke-linecap="round" stroke-linejoin="round"/>
<path d="M129.832 144.958L128.344 144.111L143.675 119.344C144.387 118.206 145.692 117.5 147.082 117.5H154.019V119.152H147.082C146.299 119.152 145.564 119.55 145.162 120.191L129.832 144.958Z" fill="white" stroke="#263238" stroke-width="0.2" stroke-miterlimit="10" stroke-linecap="round" stroke-linejoin="round"/>
<path d="M154.172 113.566H194.27V98.8799C194.27 98.8799 168.512 96.8544 154.304 108.122L154.172 113.566Z" fill="#263238" stroke="#263238" stroke-width="0.2" stroke-miterlimit="10" stroke-linecap="round" stroke-linejoin="round"/>
<path d="M195.768 90.2598H186.766V91.4989H195.768V90.2598Z" stroke="#263238" stroke-width="0.2" stroke-miterlimit="10" stroke-linecap="round" stroke-linejoin="round"/>
<path d="M186.759 92.3249H158.961C158.124 92.3249 157.445 91.6776 157.445 90.8792C157.445 90.0808 158.124 89.4336 158.961 89.4336H186.759C187.596 89.4336 188.275 90.0808 188.275 90.8792C188.275 91.6772 187.597 92.3249 186.759 92.3249Z" fill="#263238"/>
<path d="M154.764 133.514H153.465V92.263C153.465 91.1585 154.407 90.2598 155.566 90.2598H158.962V91.4989H155.566C155.124 91.4989 154.764 91.8417 154.764 92.263V133.514Z" fill="white" stroke="#263238" stroke-width="0.2" stroke-miterlimit="10" stroke-linecap="round" stroke-linejoin="round"/>
<path d="M187.435 62.0435C187.435 62.0435 182.252 62.3731 179.141 65.2561C176.031 68.1392 162.727 88.4037 162.727 88.4037L175.859 89.1451L173.44 99.2774L202.036 103.808C202.036 103.808 202.987 105.456 204.455 97.3001C205.924 89.1447 209.121 77.2826 209.121 73.3286C209.121 69.3746 207.479 65.0087 205.492 63.4433C203.505 61.8783 197.285 60.7251 197.285 60.7251L187.435 62.0435Z" fill="white" stroke="#263238" stroke-width="0.2" stroke-miterlimit="10" stroke-linecap="round" stroke-linejoin="round"/>
<path d="M179.516 73.8547L180.194 71.3525" stroke="#263238" stroke-width="0.2" stroke-miterlimit="10" stroke-linecap="round" stroke-linejoin="round"/>
<path d="M176.336 85.5951L179.004 75.7466" stroke="#263238" stroke-width="0.2" stroke-miterlimit="10" stroke-linecap="round" stroke-linejoin="round"/>
<path d="M173.743 84.5255C173.743 84.5255 170.604 83.1431 168.032 83.1431C165.46 83.1431 163.679 84.8411 162.393 86.8216C161.107 88.8025 164.768 90.0284 166.548 90.123C168.329 90.2172 169.573 90.0631 171.947 90.0631C174.322 90.0631 176.239 94.7491 176.239 94.7491C176.239 94.7491 176.635 96.73 177.624 98.0505C178.614 99.371 178.218 99.8427 178.811 100.031C179.405 100.22 180.592 99.7485 180.691 98.8997C180.789 98.0509 181.814 96.4677 180.889 93.7119C178.178 85.6333 173.743 84.5255 173.743 84.5255Z" fill="white" stroke="#263238" stroke-width="0.2" stroke-miterlimit="10" stroke-linecap="round" stroke-linejoin="round"/>
<path d="M177.68 95.104L179.067 99.2472" stroke="#263238" stroke-width="0.2" stroke-miterlimit="10" stroke-linecap="round" stroke-linejoin="round"/>
<path d="M178.887 94.8389C178.887 94.8389 180.181 97.5719 180.089 99.3352" stroke="#263238" stroke-width="0.2" stroke-miterlimit="10" stroke-linecap="round" stroke-linejoin="round"/>
<path d="M180.176 94.3979C180.176 94.3979 180.907 95.6503 180.907 97.7663" stroke="#263238" stroke-width="0.2" stroke-miterlimit="10" stroke-linecap="round" stroke-linejoin="round"/>
<path d="M188.311 59.9853C188.311 59.9853 186.065 61.3855 185.114 63.2805C184.164 65.1751 183.646 66.7401 184.337 66.9049C185.028 67.0697 189.089 65.5869 189.089 65.5869C189.089 65.5869 191.335 65.0103 191.939 65.2573C192.544 65.5043 194.445 67.7285 196.086 68.3051C197.728 68.8817 199.887 64.7629 200.492 61.8799C201.097 58.9969 198.246 58.5024 198.246 58.5024C198.246 58.5024 190.038 58.832 188.311 59.9853Z" fill="white" stroke="#263238" stroke-width="0.2" stroke-miterlimit="10" stroke-linecap="round" stroke-linejoin="round"/>
<path d="M199.715 38.2379C199.715 38.2379 196.778 36.3433 191.248 37.1669C185.719 37.9905 183.214 41.6154 183.041 43.4274C182.868 45.2398 182.695 46.1456 182.609 49.029C182.523 51.912 182.695 55.619 183.818 56.937C184.942 58.2551 186.756 59.4909 187.274 60.1497C187.792 60.8089 188.656 65.0099 189.088 65.5865C189.52 66.1631 190.643 66.6575 191.248 65.6687C192.201 64.1115 193.831 62.9625 195.355 61.9513C195.71 61.7163 199.231 59.8023 199.023 59.3261C199.023 59.3261 198.591 58.3372 199.023 56.1134C199.455 53.8892 199.887 53.6422 199.887 53.6422C199.887 53.6422 203.602 53.56 203.602 50.347C203.602 47.134 202.652 46.8048 202.652 46.8048C202.652 46.8048 203.43 40.8739 199.715 38.2379Z" fill="white" stroke="#263238" stroke-width="0.2" stroke-miterlimit="10" stroke-linecap="round" stroke-linejoin="round"/>
<path d="M199.883 39.3909C199.883 39.3909 196.859 40.8737 196.772 42.3565C196.686 43.8393 198.587 44.9925 198.759 45.3221C198.932 45.6517 198.241 47.5463 198.932 47.8759C199.624 48.2055 200.388 47.6285 200.401 47.2167C200.431 46.2758 202.392 46.1238 202.647 46.8049C202.647 46.8049 203.598 46.7227 203.339 43.3453C203.08 39.9679 201.524 38.1555 199.883 39.3909Z" fill="#263238" stroke="#263238" stroke-width="0.2" stroke-miterlimit="10" stroke-linecap="round" stroke-linejoin="round"/>
<path d="M199.709 38.2376C199.709 38.2376 198.845 38.979 197.203 39.8852C195.562 40.7914 193.92 40.8736 191.588 40.1322C189.255 39.3908 186.49 39.1438 185.454 39.9674C184.417 40.791 183.035 41.615 183.035 42.5212C183.035 43.4275 181.48 40.7088 182.603 39.0616C183.726 37.414 185.454 37.3318 185.454 37.3318C185.454 37.3318 186.75 34.4488 188.477 34.2014C190.205 33.954 199.881 34.8602 199.709 38.2376Z" fill="#263238" stroke="#263238" stroke-width="0.2" stroke-miterlimit="10" stroke-linecap="round" stroke-linejoin="round"/>
<path d="M187.179 45.1572L187.525 47.134L186.574 52.6535L188.993 53.0653" stroke="#263238" stroke-width="0.2" stroke-miterlimit="10" stroke-linecap="round" stroke-linejoin="round"/>
<path d="M186.922 54.3008C186.922 54.3008 189.427 55.6188 191.933 53.9712" stroke="#263238" stroke-width="0.2" stroke-miterlimit="10" stroke-linecap="round" stroke-linejoin="round"/>
<path d="M186.574 58.502C186.574 58.502 187.784 59.9848 188.82 60.3966C189.857 60.8084 191.066 60.8084 191.671 60.5614C192.276 60.3144 193.572 58.6668 193.572 58.6668" stroke="#263238" stroke-width="0.2" stroke-miterlimit="10" stroke-linecap="round" stroke-linejoin="round"/>
<path d="M189.684 44.5802C189.684 44.5802 191.93 44.0036 193.83 45.1568" stroke="#263238" stroke-width="0.2" stroke-miterlimit="10" stroke-linecap="round" stroke-linejoin="round"/>
<path d="M186.232 44.5805C186.232 44.5805 185.541 43.8391 183.641 44.5805" stroke="#263238" stroke-width="0.2" stroke-miterlimit="10" stroke-linecap="round" stroke-linejoin="round"/>
<path d="M192.45 48.0813C192.45 48.6046 192.238 49.0288 191.975 49.0288C191.713 49.0288 191.5 48.6046 191.5 48.0813C191.5 47.558 191.713 47.1338 191.975 47.1338C192.238 47.1338 192.45 47.558 192.45 48.0813Z" fill="#263238"/>
<path d="M185.841 48.0813C185.841 48.6046 185.628 49.0288 185.366 49.0288C185.103 49.0288 184.891 48.6046 184.891 48.0813C184.891 47.558 185.103 47.1338 185.366 47.1338C185.628 47.1338 185.841 47.558 185.841 48.0813Z" fill="#263238"/>
<path d="M190.984 49.3579C190.984 49.3579 191.848 50.4289 193.317 50.7585" stroke="#263238" stroke-width="0.2" stroke-miterlimit="10" stroke-linecap="round" stroke-linejoin="round"/>
<path d="M186.661 48.9463C186.661 48.9463 185.106 49.9347 184.242 50.1821" stroke="#263238" stroke-width="0.2" stroke-miterlimit="10" stroke-linecap="round" stroke-linejoin="round"/>
<path d="M195.913 82.4732C195.913 82.4732 187.533 83.4616 180.967 85.7684C174.401 88.0748 168.987 92.2755 168.713 92.7988C168.323 93.5418 166.635 96.2667 166.375 96.8858C166.115 97.5049 168.064 97.5049 168.973 97.5049C169.882 97.5049 171.961 95.6471 172.35 95.2758C172.74 94.9044 171.311 97.0097 172.61 97.0097C173.909 97.0097 174.039 95.2758 174.559 94.904C175.078 94.5323 175.454 94.0994 176.247 92.7984C177.04 91.4973 178.425 91.9463 177.733 90.6894C177.586 90.423 177.253 90.2206 176.821 90.0653C186.281 89.9595 202.96 89.7576 203.515 89.6398C204.293 89.475 204.898 87.8274 204.898 87.8274C204.898 87.8274 200.751 82.0614 195.913 82.4732Z" fill="white" stroke="#263238" stroke-width="0.2" stroke-miterlimit="10" stroke-linecap="round" stroke-linejoin="round"/>
<path d="M175.867 92.2227C175.867 92.2227 174.745 92.8063 173.827 93.3899C172.91 93.9735 170.92 94.2164 170.665 94.5084C170.41 94.8 168.013 96.5022 167.656 96.8425" stroke="#263238" stroke-width="0.2" stroke-miterlimit="10"/>
<path d="M201.184 68.469L195.914 82.4731C195.914 82.4731 198.679 82.8027 200.925 84.9443C203.171 87.0859 205.159 89.228 205.159 89.228C205.159 89.228 208.528 81.5669 208.96 75.1417C209.392 68.7164 206.022 64.3502 204.295 63.6914" fill="white"/>
<path d="M201.184 68.469L195.914 82.4731C195.914 82.4731 198.679 82.8027 200.925 84.9443C203.171 87.0859 205.159 89.228 205.159 89.228C205.159 89.228 208.528 81.5669 208.96 75.1417C209.392 68.7164 206.022 64.3502 204.295 63.6914" stroke="#263238" stroke-width="0.2" stroke-miterlimit="10" stroke-linecap="round" stroke-linejoin="round"/>
<path d="M223 71.124H214.605C213.646 71.124 212.868 71.8654 212.868 72.7799V73.1054H212.912V117.256H172.438V118.324H212.912V127.354H214.312V118.324V117.256V73.1054H223V71.124Z" fill="white" stroke="#263238" stroke-width="0.2" stroke-miterlimit="10" stroke-linecap="round" stroke-linejoin="round"/>
<path d="M224.946 70.5811H216.113V73.7251H224.946V70.5811Z" fill="#263238" stroke="#263238" stroke-width="0.2" stroke-miterlimit="10" stroke-linecap="round" stroke-linejoin="round"/>
<path d="M151.428 97.8776C151.428 97.8776 146.232 95.1528 142.075 97.3824C139.845 98.5786 139.477 108.034 139.217 112.245C138.957 116.456 137.529 136.149 137.529 136.149C137.529 136.149 136.749 136.273 136.23 136.52C135.71 136.768 135.19 138.502 135.19 138.502C135.19 138.502 133.502 138.874 130.384 138.626C127.266 138.378 125.838 139.369 127.266 141.227C128.696 143.085 127.396 142.713 133.112 144.447C138.827 146.181 141.945 146.676 141.945 146.676C141.945 146.676 143.634 147.667 144.413 146.924C145.192 146.181 145.062 144.942 144.933 143.58C144.803 142.217 145.452 138.873 145.452 138.502C145.452 138.131 147.401 135.653 147.661 131.195C147.92 126.736 148.05 126.117 148.18 125.126C148.31 124.135 150.389 110.883 150.389 110.883C150.389 110.883 166.909 113.153 169.743 113.36C172.577 113.566 173.9 113.112 173.9 113.112L151.428 97.8776Z" fill="#3AB7F7" stroke="#263238" stroke-width="0.2" stroke-miterlimit="10" stroke-linecap="round" stroke-linejoin="round"/>
<path d="M144.469 112.22C144.837 116.135 145.64 122.412 147.227 126.446" stroke="#263238" stroke-width="0.2" stroke-miterlimit="10"/>
<path d="M144.199 108.668C144.199 108.668 144.233 109.339 144.319 110.446" stroke="#263238" stroke-width="0.2" stroke-miterlimit="10"/>
<path d="M202.033 103.809C202.033 103.809 182.728 99.7349 167.92 97.7532C153.112 95.7714 150.124 96.267 149.475 98.4962C148.825 100.726 147.266 134.909 147.266 134.909C147.266 134.909 144.279 135.033 144.149 135.776C144.019 136.519 143.239 139.492 143.239 139.492C143.239 139.492 138.303 140.359 135.705 139.987C133.108 139.616 132.068 139.12 132.198 140.73C132.328 142.34 134.536 143.455 139.602 145.684C144.668 147.913 150.405 150.151 151.563 149.466C152.721 148.78 151.738 145.099 152.425 145.02C153.111 144.941 154.28 141.225 154.93 140.11C155.579 138.996 155.579 136.766 155.579 136.395C155.579 136.023 157.138 126.486 158.177 123.638C159.216 120.789 161.814 109.394 161.814 109.394C161.814 109.394 169.761 111.913 171.167 112.738C172.572 113.564 172.572 113.564 172.572 113.564C172.572 113.564 192.989 115.091 197.406 111.747C201.823 108.405 202.033 103.809 202.033 103.809Z" fill="#3AB7F7" stroke="#263238" stroke-width="0.2" stroke-miterlimit="10" stroke-linecap="round" stroke-linejoin="round"/>
<path d="M159.812 105.793C160.708 106.808 161.613 108.109 161.82 109.395" stroke="#263238" stroke-width="0.2" stroke-miterlimit="10"/>
<path d="M157.824 103.89C157.824 103.89 158.263 104.235 158.852 104.8" stroke="#263238" stroke-width="0.2" stroke-miterlimit="10"/>
<path d="M158.875 101.668C158.875 101.668 160.273 102.779 161.206 105.779" stroke="#263238" stroke-width="0.2" stroke-miterlimit="10"/>
<path d="M172.582 113.566H212.68V98.8799C212.68 98.8799 186.922 96.8544 172.715 108.122L172.582 113.566Z" fill="#949494" stroke="#263238" stroke-width="0.2" stroke-miterlimit="10" stroke-linecap="round" stroke-linejoin="round"/>
<path d="M209.079 103.15C196.292 103.15 185.926 114.239 185.926 127.917C185.926 141.596 196.292 152.685 209.079 152.685C221.866 152.685 232.233 141.596 232.233 127.917C232.233 114.239 221.866 103.15 209.079 103.15ZM209.079 150.05C197.653 150.05 188.389 140.141 188.389 127.918C188.389 115.695 197.653 105.786 209.079 105.786C220.506 105.786 229.769 115.695 229.769 127.918C229.769 140.141 220.506 150.05 209.079 150.05Z" fill="#263238" stroke="#263238" stroke-width="0.2" stroke-miterlimit="10" stroke-linecap="round" stroke-linejoin="round"/>
<path d="M229.425 137.459H226.896C228.381 134.638 229.231 131.385 229.231 127.917C229.231 117.157 221.077 108.434 211.017 108.434C206.684 108.434 202.706 110.055 199.58 112.758H192.297V113.62H198.648C195.055 117.178 192.803 122.265 192.803 127.917C192.803 134.391 195.758 140.124 200.3 143.667H193.405V144.53H201.302V144.394C204.114 146.296 207.444 147.401 211.017 147.401C217.499 147.401 223.186 143.776 226.414 138.321H229.424V137.459H229.425ZM227.961 127.917C227.961 132.45 226.402 136.59 223.832 139.768L216.738 129.623C216.967 129.08 217.098 128.478 217.098 127.841C217.098 126.325 216.374 124.996 215.284 124.234L217.399 111.127C223.593 113.823 227.961 120.323 227.961 127.917ZM211.018 109.792C212.551 109.792 214.036 110.014 215.449 110.423C215.154 111.694 213.382 119.323 212.36 123.645C210.656 124.03 209.36 125.618 209.244 127.557C205.016 128.993 196.49 131.572 194.545 132.158C194.24 130.797 194.073 129.378 194.073 127.917C194.073 117.907 201.66 109.792 211.018 109.792ZM195.285 134.646L210.474 130.962C211.178 131.683 212.122 132.127 213.164 132.127C213.631 132.127 214.077 132.034 214.493 131.871L222.155 141.57C219.177 144.352 215.283 146.042 211.018 146.042C203.883 146.042 197.783 141.323 195.285 134.646Z" fill="#263238"/>
<path d="M145.34 149.327L143.852 148.48L162.097 119.344C162.809 118.206 164.114 117.5 165.504 117.5H172.441V119.152H165.504C164.721 119.152 163.986 119.55 163.584 120.191L145.34 149.327Z" fill="white" stroke="#263238" stroke-width="0.2" stroke-miterlimit="10" stroke-linecap="round" stroke-linejoin="round"/>
<path d="M236.844 27.0638C236.844 27.0638 227.825 40.45 227.174 43.0211C226.523 45.5919 225.966 55.0778 226.616 58.4465C227.267 61.8153 224.199 86.6377 224.199 86.6377C224.199 86.6377 233.311 87.1697 244.189 86.8149C255.067 86.4601 258.136 85.9285 258.136 85.9285C258.136 85.9285 259.53 81.4957 257.113 72.1875C254.696 62.8792 251.627 59.2445 250.976 53.5706C250.325 47.8971 254.137 43.1095 251.534 33.2693C248.931 23.429 245.026 23.695 245.026 23.695C245.026 23.695 240.098 23.961 236.844 27.0638Z" fill="#3AB7F7" stroke="#263238" stroke-width="0.2" stroke-miterlimit="10" stroke-linecap="round" stroke-linejoin="round"/>
<path d="M226.245 6.2885C226.245 6.2885 224.761 9.48295 225.309 11.5473C225.857 13.6117 226.712 15.3431 226.486 16.4753C226.259 17.6074 224.505 19.1348 225.313 19.7887C226.121 20.4425 227.07 20.4343 227.07 20.4343C227.07 20.4343 230.1 24.7204 230.727 25.4106C231.353 26.1008 235.258 24.416 235.258 24.416L237.029 30.7871L245.025 23.6948L242.468 17.4521C242.468 17.4521 245.484 14.3143 243.742 9.4086C242.001 4.50293 236.481 3.1589 233.455 3.21921C230.429 3.27951 227.601 5.11217 226.245 6.2885Z" fill="white" stroke="#263238" stroke-width="0.2" stroke-miterlimit="10" stroke-linecap="round" stroke-linejoin="round"/>
<path d="M223.165 6.54119C223.165 6.54119 228.098 9.54192 234.612 11.9557C234.612 11.9557 238.343 15.106 238.756 14.3893C239.169 13.6731 238.923 10.8236 240.699 11.5563C242.474 12.289 242.783 14.1291 242.375 15.2976C241.966 16.4661 241.664 17.2509 241.664 17.2509C241.664 17.2509 242.663 18.7725 243.117 18.6817C243.572 18.5908 245.655 15.0961 245.465 10.3337C245.275 5.57137 242.229 1.65039 237.738 1.09733C233.247 0.544273 227.776 2.45128 225.313 4.21082C222.849 5.97037 222.648 5.91957 223.165 6.54119Z" fill="#263238" stroke="#263238" stroke-width="0.2" stroke-miterlimit="10" stroke-linecap="round" stroke-linejoin="round"/>
<path d="M245.441 13.2367C245.441 13.2367 245.219 10.9261 248.182 11.8745C251.145 12.8228 252.635 16.1486 252.106 18.0655C251.577 19.9824 247.437 21.8952 245.82 20.5879C244.203 19.2803 244.004 17.5083 244.091 17.0383C244.178 16.5682 245.441 13.2367 245.441 13.2367Z" fill="#263238" stroke="#263238" stroke-width="0.2" stroke-miterlimit="10" stroke-linecap="round" stroke-linejoin="round"/>
<path d="M228.824 21.0809C228.824 21.0809 230.678 20.4395 231.484 18.9199" stroke="#263238" stroke-width="0.2" stroke-miterlimit="10" stroke-linecap="round" stroke-linejoin="round"/>
<path d="M235.258 24.4163L238.071 22.9492L235.914 26.2659L235.258 24.4163Z" fill="#263238" stroke="#263238" stroke-width="0.2" stroke-miterlimit="10" stroke-linecap="round" stroke-linejoin="round"/>
<path d="M229.488 15.4247C229.614 15.9997 229.493 16.5106 229.216 16.5659C228.94 16.6213 228.613 16.1996 228.487 15.6246C228.361 15.0497 228.483 14.5387 228.759 14.4834C229.036 14.4281 229.362 14.8494 229.488 15.4247Z" fill="#263238"/>
<path d="M227.098 13.6362C227.098 13.6362 227.76 12.3265 229.354 13.0955" stroke="#263238" stroke-width="0.2" stroke-miterlimit="10" stroke-linecap="round" stroke-linejoin="round"/>
<path d="M231.731 50.645H226.789V60.1015H231.731V50.645Z" fill="white" stroke="#263238" stroke-width="0.2" stroke-miterlimit="10" stroke-linecap="round" stroke-linejoin="round"/>
<path d="M245.031 23.6953L228.109 50.7341L246.147 24.1385L245.031 23.6953Z" fill="#263238" stroke="#263238" stroke-width="0.2" stroke-miterlimit="10" stroke-linecap="round" stroke-linejoin="round"/>
<path d="M236.106 27.2412L228.109 50.7341L236.654 29.7405L236.106 27.2412Z" fill="#263238" stroke="#263238" stroke-width="0.2" stroke-miterlimit="10" stroke-linecap="round" stroke-linejoin="round"/>
<path d="M219.826 69.3787C219.826 69.3787 216.665 74.6979 216.943 74.9639C217.222 75.2299 218.71 75.2298 218.71 75.2298L220.011 74.7867C220.011 74.7867 221.685 75.407 222.894 75.2298C224.102 75.0527 225.962 72.6591 226.241 71.9499C226.52 71.2407 230.268 70.0094 234.032 68.7381C239.62 66.8509 249.275 60.0003 249.74 59.8227C250.205 59.6455 251.6 58.0495 251.6 58.0495L252.358 49.8374L243.619 48.6851L242.86 54.6807C242.86 54.6807 237.956 60.5137 233.121 63.7936C228.287 67.0736 225.311 68.5807 225.033 68.7579C224.753 68.9355 221.22 69.0239 219.826 69.3787Z" fill="white" stroke="#263238" stroke-width="0.2" stroke-miterlimit="10" stroke-linecap="round" stroke-linejoin="round"/>
<path d="M245.303 27.4347C245.303 27.4347 243.444 30.2293 243.165 33.4234C242.886 36.6174 241.398 52.488 241.398 52.488L253.299 53.7858C253.299 53.7858 254.973 41.908 253.485 35.7194C251.998 29.5309 249.023 25.239 246.884 25.638" fill="#3AB7F7"/>
<path d="M245.303 27.4347C245.303 27.4347 243.444 30.2293 243.165 33.4234C242.886 36.6174 241.398 52.488 241.398 52.488L253.299 53.7858C253.299 53.7858 254.973 41.908 253.485 35.7194C251.998 29.5309 249.023 25.239 246.884 25.638" stroke="#263238" stroke-width="0.2" stroke-miterlimit="10" stroke-linecap="round" stroke-linejoin="round"/>
<path d="M212.911 90.2598H204.828V91.4989H212.911V90.2598Z" fill="white" stroke="#263238" stroke-width="0.2" stroke-miterlimit="10" stroke-linecap="round" stroke-linejoin="round"/>
<path d="M204.829 92.3249H177.032C176.194 92.3249 175.516 91.6776 175.516 90.8792C175.516 90.0808 176.194 89.4336 177.032 89.4336H204.829C205.667 89.4336 206.346 90.0808 206.346 90.8792C206.346 91.6772 205.667 92.3249 204.829 92.3249Z" fill="#263238"/>
<path d="M172.827 133.514H171.527V92.263C171.527 91.1585 172.47 90.2598 173.628 90.2598H177.024V91.4989H173.628C173.186 91.4989 172.827 91.8417 172.827 92.263V133.514Z" fill="white" stroke="#263238" stroke-width="0.2" stroke-miterlimit="10" stroke-linecap="round" stroke-linejoin="round"/>
</g>
<path d="M1 159.071V22H85.5141V74.7107" stroke="#F9F9F9" stroke-opacity="0.2" stroke-miterlimit="10" stroke-linecap="round" stroke-linejoin="round"/>
<path d="M85.5141 79.5952V173.28H1V163.955" stroke="#F9F9F9" stroke-opacity="0.2" stroke-miterlimit="10" stroke-linecap="round" stroke-linejoin="round"/>
<path d="M176.608 38.3029V173.28H92.0938V22H176.608V32.5312" stroke="#F9F9F9" stroke-opacity="0.2" stroke-miterlimit="10" stroke-linecap="round" stroke-linejoin="round"/>
<path d="M267.705 93.3593V173.28H183.191V22H267.705V87.587" stroke="#F9F9F9" stroke-opacity="0.2" stroke-miterlimit="10" stroke-linecap="round" stroke-linejoin="round"/>
<path d="M22.2673 81.4453L14.1016 89.611" stroke="#F9F9F9" stroke-opacity="0.2" stroke-miterlimit="10" stroke-linecap="round" stroke-linejoin="round"/>
<path d="M76.2186 27.4932L25.1523 78.5601" stroke="#F9F9F9" stroke-opacity="0.2" stroke-miterlimit="10" stroke-linecap="round" stroke-linejoin="round"/>
<path d="M28.467 82.8496L10.2969 101.02" stroke="#F9F9F9" stroke-opacity="0.2" stroke-miterlimit="10" stroke-linecap="round" stroke-linejoin="round"/>
<path d="M103.266 102.711L130.098 75.8774" stroke="#F9F9F9" stroke-opacity="0.2" stroke-miterlimit="10" stroke-linecap="round" stroke-linejoin="round"/>
<path d="M262.147 117.923L240.586 139.484" stroke="#F9F9F9" stroke-opacity="0.2" stroke-miterlimit="10" stroke-linecap="round" stroke-linejoin="round"/>
<path d="M260.879 112.43L253.906 119.402" stroke="#F9F9F9" stroke-opacity="0.2" stroke-miterlimit="10" stroke-linecap="round" stroke-linejoin="round"/>
<path d="M232.143 28.3389L213.762 46.7206" stroke="#F9F9F9" stroke-opacity="0.2" stroke-miterlimit="10" stroke-linecap="round" stroke-linejoin="round"/>
<path d="M214.819 38.0576L208.48 44.3958" stroke="#F9F9F9" stroke-opacity="0.2" stroke-miterlimit="10" stroke-linecap="round" stroke-linejoin="round"/>
</svg>
