<svg width="13" height="14" viewBox="0 0 13 14" fill="none" xmlns="http://www.w3.org/2000/svg">
<path d="M0.25 5.49316C0.25 4.31441 0.25 3.72566 0.61625 3.35941C0.9825 2.99316 1.57125 2.99316 2.75 2.99316H10.25C11.4288 2.99316 12.0175 2.99316 12.3837 3.35941C12.75 3.72566 12.75 4.31441 12.75 5.49316C12.75 5.78754 12.75 5.93504 12.6588 6.02691C12.5669 6.11816 12.4187 6.11816 12.125 6.11816H0.875C0.580625 6.11816 0.433125 6.11816 0.34125 6.02691C0.25 5.93504 0.25 5.78691 0.25 5.49316ZM0.25 11.1182C0.25 12.2969 0.25 12.8857 0.61625 13.2519C0.9825 13.6182 1.57125 13.6182 2.75 13.6182H10.25C11.4288 13.6182 12.0175 13.6182 12.3837 13.2519C12.75 12.8857 12.75 12.2969 12.75 11.1182V7.99316C12.75 7.69879 12.75 7.55129 12.6588 7.45941C12.5669 7.36816 12.4187 7.36816 12.125 7.36816H0.875C0.580625 7.36816 0.433125 7.36816 0.34125 7.45941C0.25 7.55129 0.25 7.69941 0.25 7.99316V11.1182Z" fill="black"/>
<path d="M3.375 1.74316V3.61816M9.625 1.74316V3.61816" stroke="black" stroke-width="2" stroke-linecap="round"/>
</svg>
