<svg width="227" height="214" viewBox="0 0 227 214" fill="none" xmlns="http://www.w3.org/2000/svg">
<path d="M188.964 140.094C188.964 165.428 175.025 187.511 154.401 199.085C148.838 202.207 142.788 204.564 136.394 206.016C136.223 206.056 136.051 206.096 135.88 206.132C131.206 207.157 126.348 207.695 121.363 207.695C112.796 207.695 104.6 206.1 97.0543 203.193C71.7288 193.429 53.7617 168.858 53.7617 140.094C53.7617 102.76 84.0286 72.4933 121.363 72.4933C158.697 72.4933 188.964 102.76 188.964 140.094Z" fill="#C7E6FF"/>
<path d="M57.3126 77.8734C50.0021 85.499 47.7368 99.1269 57.5479 117.736C61.3846 125.011 67.0679 133.047 75.0205 141.785C75.7822 142.627 76.5679 143.476 77.3815 144.33C77.6288 144.597 77.884 144.864 78.1393 145.131C78.1433 145.135 78.1512 145.143 78.1552 145.147L77.4334 145.837L76.7115 146.523C76.4682 146.272 76.2289 146.017 75.9896 145.766C75.164 144.892 74.3584 144.027 73.5727 143.161C66.3739 135.264 60.7345 127.659 56.6824 120.388C53.2166 114.175 50.9114 108.208 49.7828 102.521C46.967 88.3426 52.3911 80.1268 55.8728 76.4935C62.4973 69.5819 72.4042 67.9227 77.9518 72.8004C81.2541 75.6998 83.3798 79.3611 84.2812 83.5647C83.6869 83.9555 83.1007 84.3544 82.5184 84.7652C81.8922 81.08 80.1773 77.4108 76.6317 74.3C71.9575 70.1881 63.1115 71.8272 57.3126 77.8734Z" fill="#203760"/>
<path d="M78.8435 144.426L78.1376 145.131L77.4316 145.837L76.0198 147.245C75.8244 147.05 75.629 146.85 75.4375 146.655C74.5242 145.734 73.6308 144.816 72.7773 143.915L73.571 143.161L75.0187 141.785L75.6688 141.167C76.4864 142.029 77.3359 142.906 78.2054 143.783C78.4167 143.995 78.6281 144.21 78.8435 144.426Z" fill="#E6EEFF"/>
<path d="M84.6329 156.179C81.1432 157.83 76.9794 156.338 75.3283 152.853C74.3591 150.803 74.4748 148.521 75.4399 146.655C75.5995 146.344 75.7829 146.049 75.9903 145.766C76.3772 145.227 76.8438 144.745 77.3822 144.33C77.6415 144.13 77.9167 143.947 78.2078 143.783C78.3514 143.704 78.5029 143.624 78.6545 143.552C82.1442 141.901 86.308 143.389 87.9591 146.878C89.6102 150.364 88.1186 154.528 84.6329 156.179Z" fill="#E6EEFF"/>
<path d="M78.3542 151.42C77.4951 149.604 78.2705 147.437 80.0859 146.578C81.9014 145.719 84.069 146.494 84.9281 148.309C85.7871 150.125 85.0118 152.292 83.1964 153.151C81.3809 154.011 79.2133 153.235 78.3542 151.42Z" fill="#ABC3F1"/>
<path d="M80.4125 150.447C80.0907 149.767 80.381 148.955 81.0614 148.634C81.7414 148.312 82.5534 148.602 82.8753 149.282C83.1971 149.962 82.9064 150.774 82.2264 151.096C81.5464 151.418 80.7344 151.127 80.4125 150.447Z" fill="#202632"/>
<path d="M185.754 176.575C182.814 180.045 178.623 182.346 173.227 183.455C173.928 182.617 174.61 181.76 175.269 180.886C179.045 179.742 182.041 177.871 184.23 175.287C188.589 170.134 189.858 162.121 188.015 151.433C188.019 151.429 188.019 151.429 188.015 151.425C187.891 150.699 187.748 149.957 187.592 149.203C187.524 148.864 187.453 148.521 187.377 148.179L188.514 147.931L189.323 147.752C189.391 148.063 189.459 148.374 189.523 148.681C192.107 161.184 190.843 170.561 185.754 176.575Z" fill="#203760"/>
<path d="M193.491 131.38C193.491 131.492 193.491 131.599 193.483 131.711C193.435 132.708 193.156 133.657 192.693 134.495C192.573 134.706 192.446 134.914 192.302 135.109C192.183 135.284 192.051 135.448 191.907 135.607C191.134 136.497 190.105 137.175 188.916 137.522C188.872 137.538 188.828 137.55 188.785 137.562L183.209 139.077C182.659 139.225 182.096 139.297 181.546 139.297C180.852 139.297 180.166 139.181 179.516 138.966C179.316 138.898 179.117 138.822 178.926 138.73C178.706 138.635 178.491 138.523 178.287 138.399C177.43 137.897 176.688 137.187 176.142 136.309C176.098 136.25 176.058 136.182 176.022 136.118L172.122 129.382C172.11 129.358 172.094 129.334 172.086 129.31V129.306C171.978 129.035 172.078 128.716 172.341 128.564C172.628 128.401 172.991 128.496 173.159 128.784L177.059 135.52C177.083 135.564 177.111 135.604 177.139 135.647C178.335 137.586 180.68 138.523 182.898 137.921L188.469 136.409C188.601 136.373 188.729 136.333 188.856 136.285C190.819 135.588 192.183 133.761 192.286 131.671C192.294 131.575 192.294 131.48 192.294 131.384L192.254 123.603C192.254 123.272 192.522 123.005 192.853 123.001C193.16 123.001 193.411 123.232 193.443 123.531C193.451 123.551 193.451 123.575 193.451 123.599L193.491 131.38Z" fill="#E6EEFF"/>
<path d="M192.934 141.852C192.605 141.852 192.337 141.586 192.336 141.256L192.2 113.436C192.195 112.385 191.921 111.346 191.407 110.429C190.012 107.943 187.117 106.727 184.366 107.474L182.189 108.064C181.872 108.151 181.541 107.962 181.455 107.643C181.368 107.325 181.556 106.996 181.876 106.91L184.053 106.319C187.333 105.429 190.788 106.878 192.451 109.844C193.064 110.937 193.391 112.178 193.397 113.431L193.532 141.251C193.534 141.582 193.268 141.851 192.937 141.852C192.936 141.852 192.935 141.852 192.934 141.852Z" fill="white"/>
<path d="M181.794 144.876C181.698 144.928 181.595 144.956 181.495 144.956C181.288 144.956 181.088 144.848 180.976 144.657L177.586 138.806L176.143 136.309L172.087 129.31V129.306L167.034 120.584C166.403 119.499 166.06 118.263 166.036 117.01C165.973 113.608 168.222 110.613 171.504 109.724L173.678 109.133C173.997 109.046 174.328 109.233 174.412 109.552C174.5 109.871 174.312 110.202 173.993 110.286L171.815 110.876C169.064 111.626 167.181 114.135 167.233 116.986C167.253 118.035 167.54 119.072 168.067 119.981L177.14 135.647L178.623 138.204L178.927 138.73L182.013 144.059C182.177 144.342 182.081 144.709 181.794 144.876Z" fill="white"/>
<path d="M193.945 144.095C193.953 146.085 192.617 147.843 190.695 148.362L189.522 148.681L188.381 148.992L187.592 149.203L187.013 149.363C186.631 149.467 186.244 149.515 185.861 149.515C184.321 149.515 182.85 148.701 182.052 147.321L177.238 139.006L177.585 138.806L178.287 138.399L178.622 138.204L178.961 138.008L179.516 138.966L183.775 146.32C184.321 147.265 185.438 147.724 186.491 147.437L188.625 146.858L190.172 146.44C191.225 146.152 191.955 145.191 191.951 144.103L191.907 135.608L191.903 134.499L192.302 134.495H192.693L193.498 134.491L193.897 134.487L193.945 144.095Z" fill="#203760"/>
<path d="M112.93 88.5947L116.959 99.6146H136.614L139.451 88.5368C134.578 86.8913 133.996 81.9179 128.468 81.9179C120.673 81.9183 118.783 88.0399 112.93 88.5947Z" fill="white"/>
<path d="M129.142 87.4947L128.465 92.949L130.254 93.1712L130.573 87.6722L129.142 87.4947Z" fill="#FF6663"/>
<path d="M132.536 89.7768L127.082 89.1L126.859 90.8891L132.358 91.2082L132.536 89.7768Z" fill="#FF6663"/>
<path d="M162.14 172.084C162.14 172.084 162.344 177.215 150.468 184.316L148.207 177.974C148.207 177.974 155.758 172.489 162.14 172.084Z" fill="#202632"/>
<path d="M83.1378 172.742C83.1378 172.742 82.0749 180.418 99.3166 186.795L99.6097 179.516C99.6097 179.516 92.7032 172.86 83.1378 172.742Z" fill="#202632"/>
<path d="M162.144 172.084C161.255 172.327 160.353 172.607 159.468 172.914C159.38 172.942 159.293 172.969 159.209 173.001C159.153 173.021 159.101 173.041 159.045 173.061C158.515 173.245 157.988 173.44 157.474 173.639C157.442 173.651 157.414 173.663 157.386 173.671C153.677 175.107 150.411 176.79 148.979 177.556C148.891 177.6 148.811 177.644 148.74 177.684C148.596 177.759 148.484 177.823 148.397 177.867C148.313 177.915 148.257 177.947 148.229 177.963C148.225 177.963 148.217 177.967 148.217 177.971C148.213 177.975 148.209 177.975 148.209 177.975C148.225 178.003 148.245 178.031 148.261 178.058C148.313 178.142 148.365 178.242 148.425 178.354C148.452 178.417 148.488 178.485 148.52 178.557C149.019 179.642 149.693 181.692 150.447 184.244C151.404 187.511 152.489 191.595 153.494 195.519C153.805 196.732 154.108 197.932 154.399 199.085C148.835 202.207 142.785 204.564 136.392 206.016C136.22 206.056 136.049 206.096 135.877 206.132C131.203 207.157 126.346 207.695 121.36 207.695C112.793 207.695 104.598 206.1 97.0518 203.193L98.3519 194.885L100.617 180.42C100.613 180.416 100.609 180.412 100.605 180.412C100.494 180.296 100.378 180.184 100.258 180.073C100.055 179.885 99.8356 179.698 99.6082 179.514C99.6082 179.514 99.6003 179.51 99.5883 179.494C99.5803 179.49 99.5723 179.486 99.5644 179.478C99.5484 179.462 99.5285 179.446 99.5005 179.426C99.4447 179.383 99.3849 179.339 99.3251 179.291C99.1655 179.163 98.9342 178.996 98.6271 178.788C97.0876 177.719 95.2491 176.786 93.3826 175.997C93.2829 175.953 93.1792 175.913 93.0794 175.869C90.5828 174.828 88.0662 174.042 86.1917 173.516C86.0721 173.48 85.9524 173.448 85.8328 173.416C84.2016 172.969 83.1367 172.742 83.1367 172.742C83.1367 172.742 83.7589 170.792 84.7958 167.912C84.8676 167.717 84.9394 167.518 85.0112 167.31C87.6993 159.924 92.8043 147.321 97.2153 144.677C100.434 142.742 105.531 141.083 109.758 139.919C111.074 139.56 112.307 139.245 113.372 138.986C115.605 138.443 117.105 138.14 117.105 138.14L127.223 139.376L131.171 139.859C131.171 139.859 132.982 140.19 135.69 140.772C136.34 140.916 137.046 141.067 137.788 141.239C138.685 141.442 139.642 141.666 140.635 141.905C142.498 142.356 144.488 142.87 146.45 143.432C150.291 144.533 156.848 159.194 160.138 167.103C160.21 167.278 160.282 167.454 160.353 167.621C161.458 170.301 162.144 172.084 162.144 172.084Z" fill="white"/>
<path d="M148.116 170.584C147.539 168.722 146.439 167.133 145.393 165.563C144.192 163.759 143.058 161.927 142.647 159.698C142.387 158.288 142.382 156.821 142.5 155.397C142.58 154.434 142.979 153.263 142.731 152.324C142.714 152.26 142.629 152.236 142.59 152.29C142.045 153.046 142.06 154.326 141.973 155.263C141.867 156.405 141.833 157.562 141.94 158.709C142.134 160.786 142.836 162.646 143.874 164.382C144.896 166.09 146.14 167.643 146.996 169.468C148.176 171.984 147.939 174.605 147.536 177.294C147.468 177.745 148.099 177.907 148.166 177.455C148.503 175.179 148.812 172.828 148.116 170.584Z" fill="#ABC3F1"/>
<path d="M159.669 166.503C157.583 166.713 155.509 167.159 153.481 167.8C151.48 168.433 149.414 169.19 147.582 170.398C147.446 170.488 147.539 170.773 147.687 170.711C149.608 169.913 151.472 168.984 153.44 168.365C155.489 167.721 157.567 167.322 159.669 167.074C159.958 167.04 159.964 166.473 159.669 166.503Z" fill="#ABC3F1"/>
<path d="M135.556 213.622C135.727 213.61 135.899 213.598 136.07 213.586C136.066 213.63 136.066 213.67 136.062 213.714C136.042 214.041 135.528 214.045 135.552 213.714C135.556 213.682 135.556 213.654 135.556 213.622Z" fill="#000840"/>
<path d="M136.391 206.016C136.219 206.056 136.048 206.096 135.876 206.132C135.976 200.959 135.816 195.786 135.39 190.633C135.382 190.55 135.374 190.462 135.366 190.378C135.302 189.628 135.23 188.879 135.154 188.133C135.138 187.989 135.122 187.846 135.111 187.702C134.732 184.228 134.213 180.79 133.607 177.365C133.033 174.098 132.379 170.848 131.701 167.585C131.673 167.45 131.76 167.354 131.864 167.326C131.88 167.322 131.896 167.318 131.912 167.318C131.924 167.318 131.932 167.318 131.94 167.322C131.948 167.318 131.956 167.322 131.964 167.322C131.972 167.326 131.976 167.326 131.98 167.326C132.04 167.346 132.091 167.39 132.111 167.47C133.005 170.72 133.635 174.066 134.205 177.388C134.221 177.488 134.241 177.592 134.257 177.692C134.827 181.046 135.286 184.416 135.629 187.802C135.641 187.878 135.649 187.953 135.653 188.033C135.741 188.871 135.816 189.708 135.884 190.546C136.315 195.691 136.482 200.855 136.391 206.016Z" fill="#ABC3F1"/>
<path d="M137.715 171.955C137.715 171.955 140.753 173.616 142.136 172.4C143.519 171.186 148.17 160.954 148.17 160.954" stroke="#E6EEFF" stroke-miterlimit="10"/>
<path d="M148.551 171.963C148.551 171.963 145.509 173.619 144.129 172.402C142.748 171.185 138.113 160.946 138.113 160.946" stroke="#E6EEFF" stroke-miterlimit="10"/>
<path d="M138.111 160.947C138.111 160.947 133.915 148.826 142.869 148.833C151.823 148.841 148.17 160.954 148.17 160.954" stroke="#203760" stroke-width="2" stroke-miterlimit="10"/>
<path d="M143.577 148.862C143.577 148.862 141.66 135.631 129.996 138.718" stroke="#203760" stroke-width="2" stroke-miterlimit="10"/>
<path d="M116.226 167.086C116.226 167.086 104.059 148.945 116.716 141.469" stroke="#203760" stroke-width="2" stroke-miterlimit="10"/>
<path d="M120.193 166.142C120.668 168.139 119.434 170.143 117.437 170.618C115.44 171.093 113.436 169.859 112.961 167.862C112.486 165.865 113.72 163.861 115.717 163.386C117.714 162.911 119.718 164.145 120.193 166.142Z" fill="#CCDEFF"/>
<path d="M118.449 166.557C118.695 167.59 118.056 168.628 117.022 168.874C115.988 169.12 114.951 168.481 114.705 167.447C114.459 166.414 115.098 165.376 116.132 165.13C117.165 164.884 118.203 165.523 118.449 166.557Z" fill="#ABC3F1"/>
<path d="M109.383 139.145C109.383 139.145 115.278 151.331 115.93 152.069C116.582 152.808 118.575 151.995 118.575 151.995C118.575 151.995 117.913 154.277 118.881 155.631C119.848 156.985 131.956 167.407 131.956 167.407L126.04 132.385L109.383 139.145Z" fill="#ABC3F1"/>
<path d="M137.818 137.369C137.818 137.369 137.769 149.142 137.498 149.966C137.227 150.791 135.696 150.58 135.696 150.58C135.696 150.58 136.664 152.442 136.32 153.896C135.977 155.35 131.958 167.406 131.958 167.406L126.398 134.494L137.818 137.369Z" fill="#ABC3F1"/>
<path d="M135.866 155.167L129.347 153.935L123.732 156.239C123.732 156.239 111.853 137.813 112.364 136.277C112.86 134.785 116.957 131.637 116.957 131.637L131.332 132.406C131.332 132.406 133.478 133.123 135.337 134.494C135.786 134.826 135.866 155.167 135.866 155.167Z" fill="#10427D"/>
<path d="M128.317 152.258L125.133 154.492L131.957 167.406L133.022 154.024L128.317 152.258Z" fill="#10427D"/>
<path d="M132.859 154.511C131.854 154.3 130.67 154.222 129.6 153.943C129.395 153.896 129.395 153.896 129.241 153.959C128.048 154.44 126.84 154.652 125.764 155.366C125.649 155.443 125.723 155.608 125.856 155.584C127.06 155.365 128.287 154.706 129.426 154.237C130.484 154.57 131.676 154.631 132.765 154.852C132.987 154.897 133.082 154.558 132.859 154.511Z" fill="#000840"/>
<path d="M117.105 114.847V138.138C117.105 138.138 122.641 141.802 131.17 139.86L130.758 114.847H117.105Z" fill="#FF9883"/>
<path d="M120.93 125.033C120.93 125.033 121.679 138.698 131.171 139.861L130.927 125.033H120.93Z" fill="#202632"/>
<path d="M131.17 139.861L117.105 138.138C117.105 138.138 123.556 151.076 129.401 153.91C129.401 153.91 130.758 147.17 131.17 139.861Z" fill="#FF9883"/>
<path d="M137.641 118.917C137.605 119.562 137.556 120.202 137.493 120.834C136.991 125.849 135.554 130.259 133.06 130.698C125.067 132.113 120.424 125.441 120.424 125.441C117.715 122.562 116.371 119.096 116.309 116.15C116.192 111.014 118.691 107.204 120.276 106.456C122.232 105.529 132.155 105.103 134.586 105.489C136.875 105.851 137.972 112.523 137.641 118.917Z" fill="#FF9883"/>
<path d="M120.93 118.121C120.93 118.121 123.764 115.408 122.642 111.334C122.642 111.334 132.419 114.322 134.407 105.821C134.407 105.821 136.116 106.75 136.494 107.773C137.229 109.761 137.464 112.284 137.603 113.812C137.603 113.812 140.888 110.977 140.415 108.027C139.84 104.44 140.567 98.4029 134.477 96.6314C131.374 95.7284 117.968 93.0886 111.934 98.2255C107.668 101.856 108.412 110.448 108.412 110.448C108.412 110.448 100.441 107.436 99.6118 112.306C99.0168 115.803 101.494 117.772 101.494 117.772C101.494 117.772 96.1891 127.637 106.817 130.894C115.54 133.568 120.011 128.623 118.159 122.386L120.93 118.121Z" fill="#202632"/>
<path d="M121.98 118.69C122.101 121.463 119.951 123.809 117.179 123.929C114.405 124.051 112.059 121.9 111.938 119.128C111.818 116.354 113.968 114.008 116.741 113.888C119.513 113.767 121.859 115.916 121.98 118.69Z" fill="#FF9883"/>
<path d="M85.8314 173.417C85.8314 173.417 80.4226 187.503 84.404 193.269C89.0197 199.952 137.335 187.235 136.681 187.889C136.027 188.543 103.536 178.861 99.6105 179.515C99.6105 179.516 95.6565 176.049 85.8314 173.417Z" fill="#FD9680"/>
<path d="M98.8672 180.22C98.8672 180.22 103.545 174.981 111.723 175.962C119.901 176.944 148.21 177.974 148.21 177.974C148.21 177.974 150.452 176.137 159.463 172.912C159.463 172.912 166.418 191.254 159.372 195.502C153.811 198.854 114.572 181.451 98.8672 180.22Z" fill="#FD9680"/>
<path d="M137.312 177.719C137.312 177.719 138.276 176.083 140.078 175.366C141.88 174.648 145.101 173.945 145.811 174.123C146.521 174.301 143.844 176.152 143.844 176.152C143.844 176.152 148.38 175.302 148.531 175.775C148.684 176.248 147.268 176.957 147.268 176.957C147.268 176.957 150.38 177.918 147.644 178.136C145.037 178.344 137.312 177.719 137.312 177.719Z" fill="#FD9680"/>
<path d="M128.874 116.63C128.922 117.377 128.622 118.004 128.204 118.031C127.786 118.058 127.408 117.474 127.36 116.727C127.313 115.98 127.613 115.353 128.031 115.326C128.448 115.299 128.826 115.883 128.874 116.63Z" fill="#202632"/>
<path d="M135.597 116.07C135.645 116.817 135.345 117.444 134.927 117.471C134.509 117.498 134.131 116.914 134.083 116.167C134.035 115.42 134.335 114.793 134.753 114.766C135.171 114.739 135.549 115.323 135.597 116.07Z" fill="#202632"/>
<path d="M137.651 118.917C137.615 119.562 137.566 120.202 137.503 120.834C136.486 120.865 135.667 120.538 135.609 120.059C135.546 119.535 136.437 119.025 137.597 118.922C137.615 118.922 137.633 118.917 137.651 118.917Z" fill="#FF6663"/>
<path d="M128.491 120.528C128.553 121.053 127.663 121.563 126.504 121.668C125.345 121.772 124.354 121.431 124.292 120.906C124.23 120.381 125.12 119.87 126.279 119.766C127.439 119.661 128.429 120.002 128.491 120.528Z" fill="#FF6663"/>
<path d="M133.483 123.227C133.139 121.818 132.824 120.402 132.549 118.977C132.277 117.567 132.139 116.089 131.729 114.713C131.671 114.516 131.37 114.552 131.368 114.762C131.344 117.494 132.16 120.392 132.813 123.052C132.124 123.137 131.435 123.146 130.749 123.255C130.504 123.294 130.507 123.705 130.749 123.747C131.59 123.894 132.437 123.75 133.271 123.601C133.436 123.572 133.52 123.375 133.483 123.227Z" fill="#202632"/>
<path d="M117.375 120.838C116.743 120.805 116.278 120.968 115.72 120.527C115.115 120.048 114.865 119.179 115.014 118.43C115.131 117.842 115.511 117.301 116.013 116.973C116.376 116.735 116.822 116.698 117.108 116.365C117.15 116.317 117.14 116.257 117.09 116.22C116.521 115.803 115.645 116.347 115.194 116.747C114.493 117.366 114.163 118.291 114.258 119.217C114.35 120.106 114.832 120.938 115.634 121.359C116.227 121.67 117.184 121.818 117.527 121.104C117.586 120.981 117.515 120.845 117.375 120.838Z" fill="#202632"/>
<path d="M130.554 126.088C129.811 126.248 129.189 126.118 128.52 125.776C128.1 125.561 127.794 126.123 128.158 126.396C128.878 126.935 129.903 127.067 130.758 126.827C131.235 126.693 131.034 125.985 130.554 126.088Z" fill="#202632"/>
<path d="M131.164 188.508C124.438 186.489 117.711 184.471 110.984 182.453C107.736 181.478 104.436 180.222 101.098 179.649C99.7658 179.42 98.419 179.395 97.0885 179.613C95.7939 179.826 94.2385 180.211 93.2514 181.144C93.2283 181.166 93.2526 181.202 93.2805 181.196C94.8144 180.865 96.188 180.173 97.7797 180.026C99.3172 179.885 100.824 180.085 102.322 180.471C105.536 181.301 108.707 182.366 111.889 183.319C118.265 185.229 124.642 187.139 131.019 189.049C131.358 189.15 131.503 188.609 131.164 188.508Z" fill="#202632"/>
<path d="M156.903 179.105C153.64 178.475 150.346 178.014 147.033 177.746C145.326 177.608 143.616 177.519 141.905 177.48C140.303 177.443 138.697 177.373 137.129 177.707C137.103 177.713 137.102 177.757 137.129 177.761C138.708 178.003 140.306 177.917 141.905 177.955C143.494 177.993 145.082 178.073 146.667 178.196C150.061 178.46 153.433 178.923 156.775 179.568C157.077 179.627 157.207 179.164 156.903 179.105Z" fill="#202632"/>
<path d="M17.524 115.398V105.525H27.397V105.524V97.873H17.524V88H9.87302V97.873H0V105.525H9.87302V115.397V115.398H17.524Z" fill="#EBF6FF"/>
<path d="M218.693 54.409V46.694H226.407L226.408 46.693V40.715H226.407H218.693V33H212.714V40.715H205V46.694H212.714V54.408L212.715 54.409H218.693Z" fill="#EBF6FF"/>
<path d="M110.693 21.409V13.694H118.407L118.408 13.693V7.715H118.407H110.693V0H104.714V7.715H97V13.694H104.714V21.408L104.715 21.409H110.693Z" fill="#EBF6FF"/>
</svg>
