<svg width="5" height="9" viewBox="0 0 5 9" fill="none" xmlns="http://www.w3.org/2000/svg">
<path d="M-1.90205e-08 8.56486C6.90187e-05 8.65094 0.0233954 8.73507 0.0670329 8.80662C0.11067 8.87817 0.172662 8.93394 0.245177 8.96687C0.317693 8.9998 0.39748 9.00843 0.474462 8.99165C0.551444 8.97488 0.622167 8.93346 0.6777 8.87263L4.38387 4.80777C4.45823 4.72611 4.5 4.61541 4.5 4.5C4.5 4.38459 4.45823 4.27389 4.38387 4.19223L0.677699 0.127369C0.622167 0.066538 0.551443 0.0251211 0.474462 0.00834809C0.39748 -0.00842492 0.317692 0.000198111 0.245177 0.0331301C0.172661 0.0660621 0.11067 0.121825 0.0670325 0.193376C0.0233951 0.264927 6.86558e-05 0.349056 -3.74382e-07 0.435138L-1.90205e-08 8.56486Z" fill="white"/>
</svg>
