<svg width="21" height="19" viewBox="0 0 21 19" fill="none" xmlns="http://www.w3.org/2000/svg">
<path d="M16.862 12.3714C17.2028 11.5438 17.3878 10.6578 17.3878 9.68408C17.3878 8.98302 17.2807 8.31118 17.0957 7.68802C16.4628 7.83408 15.8007 7.91197 15.1094 7.91197C13.6936 7.91349 12.2983 7.57461 11.0409 6.9239C9.78352 6.27319 8.70103 5.32972 7.88466 4.17302C7.01136 6.28609 5.36392 7.98578 3.27914 8.9246C3.24019 9.16802 3.24019 9.43092 3.24019 9.68408C3.24019 10.6137 3.42329 11.5341 3.77902 12.393C4.13476 13.2518 4.65617 14.0321 5.31349 14.6895C6.641 16.017 8.44149 16.7628 10.3189 16.7628C11.3412 16.7628 12.3247 16.5388 13.2107 16.1396C13.7657 17.2009 14.0189 17.7267 13.9994 17.7267C12.4026 18.2622 11.166 18.5251 10.3189 18.5251C7.96256 18.5251 5.71335 17.6001 4.05808 15.9351C3.05129 14.9314 2.30289 13.6986 1.87703 12.3422H0.582031V7.91197H1.64335C1.9649 6.34679 2.70417 4.89784 3.78272 3.71889C4.86126 2.53993 6.23885 1.67495 7.76931 1.21571C9.29977 0.756471 10.926 0.720116 12.4755 1.1105C14.0249 1.50088 15.4398 2.30344 16.5699 3.43302C17.797 4.65524 18.634 6.21396 18.9749 7.91197H20.0557V12.3422H19.9973L16.531 15.5262L11.3705 14.942V13.3159H16.0733L16.862 12.3714ZM7.66072 9.46013C7.95282 9.46013 8.23519 9.57697 8.43966 9.79118C8.64516 9.99835 8.76046 10.2783 8.76046 10.5701C8.76046 10.8619 8.64516 11.1419 8.43966 11.3491C8.23519 11.5535 7.95282 11.6704 7.66072 11.6704C7.0473 11.6704 6.55072 11.1835 6.55072 10.5701C6.55072 9.95671 7.0473 9.46013 7.66072 9.46013ZM12.9673 9.46013C13.5807 9.46013 14.0676 9.95671 14.0676 10.5701C14.0676 11.1835 13.5807 11.6704 12.9673 11.6704C12.3539 11.6704 11.8573 11.1835 11.8573 10.5701C11.8573 10.2757 11.9742 9.99341 12.1824 9.78524C12.3906 9.57707 12.6729 9.46013 12.9673 9.46013Z" fill="white"/>
</svg>
