<svg width="24" height="24" viewBox="0 0 24 24" fill="none" xmlns="http://www.w3.org/2000/svg">
<path d="M20.1056 11.6295C20.1056 7.36351 16.6235 3.89501 12.3156 3.89501C8.00776 3.89501 4.52562 7.36351 4.52562 11.6295C4.52562 12.7883 4.66877 13.5332 4.84502 14.0795C4.96381 14.4417 5.24717 14.0843 5.38739 13.9529C5.84746 13.5214 6.45701 13.2854 7.08766 13.2945C7.7183 13.3036 8.3208 13.5571 8.76825 14.0016C10.152 15.3765 11.4285 17.2831 9.66508 19.0358C8.71859 19.9765 7.29302 20.3679 6.20827 19.3552C4.80801 18.0465 3.5918 16.5236 2.99294 14.6812C2.74366 13.9081 2.57812 12.9548 2.57812 11.6285C2.57812 6.27583 6.94345 1.94751 12.3156 1.94751C17.6878 1.94751 22.0531 6.27583 22.0531 11.6295C22.0531 12.9558 21.8886 13.9091 21.6383 14.6803C21.0394 16.5236 19.8232 18.0465 18.423 19.3543C17.3382 20.3679 15.9127 19.9775 14.9662 19.0358C13.2037 17.2831 14.4793 15.3765 15.862 14.0016C16.3095 13.5568 16.9122 13.3031 17.5431 13.294C18.174 13.2849 18.7837 13.5212 19.2439 13.9529C19.5136 14.206 19.647 14.5079 19.7862 14.0795C19.9625 13.5342 20.1056 12.7873 20.1056 11.6295Z" fill="#054DAE"/>
</svg>
