<svg width="30" height="19" viewBox="0 0 30 19" fill="none" xmlns="http://www.w3.org/2000/svg">
<g opacity="0.2">
<path d="M16.8279 14.6789L7.90591 18.1209C4.91091 19.2759 1.54593 17.7849 0.390926 14.7899C-0.764074 11.7949 0.72692 8.42989 3.72192 7.27489L12.6439 3.83289L16.8279 14.6789Z" fill="#415AAD"/>
<path d="M21.5665 0.390926L12.6445 3.83291L16.8285 14.6789L25.7505 11.2369C28.7455 10.0819 30.2375 6.71692 29.0815 3.72192C27.9265 0.72692 24.5615 -0.764074 21.5665 0.390926Z" fill="#BDDBFF"/>
<path opacity="0.5" d="M16.8934 6.61488C17.4434 8.03988 15.0884 10.2749 11.6344 11.6079C8.18039 12.9409 4.93439 12.8649 4.38439 11.4399C3.83439 10.0149 6.18939 7.77988 9.64339 6.44688C13.0984 5.11488 16.3434 5.18988 16.8934 6.61488Z" fill="white"/>
</g>
</svg>
