<svg width="19" height="19" viewBox="0 0 19 19" fill="none" xmlns="http://www.w3.org/2000/svg">
<g opacity="0.2">
<path d="M11.3151 3.41406H7.33307V7.33406H3.41406V11.3151H7.33307V15.2351H11.3151V11.3151H15.2341V7.33406H11.3151V3.41406Z" fill="#9CBAFF"/>
<path d="M9.32401 0C4.18301 0 0 4.183 0 9.324C0 14.465 4.18301 18.648 9.32401 18.648C14.465 18.648 18.648 14.465 18.648 9.324C18.648 4.183 14.465 0 9.32401 0ZM9.32401 17.918C4.58601 17.918 0.731018 14.063 0.731018 9.325C0.731018 4.587 4.58601 0.732002 9.32401 0.732002C14.062 0.732002 17.917 4.587 17.917 9.325C17.917 14.063 14.062 17.918 9.32401 17.918Z" fill="#9CBAFF"/>
</g>
</svg>
