<svg width="20" height="18" viewBox="0 0 20 18" fill="none" xmlns="http://www.w3.org/2000/svg">
<path d="M19.7928 9.16178C20.1108 7.39278 19.6358 5.42477 18.3068 4.21577C17.2158 3.22277 15.6418 2.83176 14.1868 3.07276C12.7318 3.31376 11.4068 4.14978 10.4568 5.27778C10.1968 3.82578 9.46681 2.43977 8.32681 1.50477C7.18681 0.569771 5.62681 0.121785 4.18581 0.437785C2.42981 0.821785 1.03581 2.28978 0.42881 3.98078C-0.17919 5.67178 -0.0831896 7.55077 0.35881 9.29277C1.30981 13.0398 3.71481 15.9258 7.11781 17.7608C10.9828 17.8708 14.5068 16.5718 17.2028 13.7998C18.4538 12.5098 19.4748 10.9308 19.7928 9.16178Z" fill="#D35D57"/>
</svg>
