<svg width="30" height="18" viewBox="0 0 30 18" fill="none" xmlns="http://www.w3.org/2000/svg">
<g opacity="0.2">
<path d="M13.2847 14.1457L4.13169 11.3777C1.05869 10.4487 -0.679306 7.2037 0.250694 4.1317C1.17969 1.0587 4.4247 -0.679306 7.4967 0.250694L16.6497 3.01869L13.2847 14.1457Z" fill="#FFB552"/>
<path d="M25.8032 5.78668L16.6502 3.01868L13.2852 14.1467L22.4382 16.9147C25.5112 17.8437 28.7552 16.1067 29.6842 13.0337C30.6142 9.95968 28.8762 6.71568 25.8032 5.78668Z" fill="#BDDBFF"/>
<path opacity="0.5" d="M18.2936 7.82474C17.8516 9.28674 14.6206 9.60373 11.0766 8.53173C7.53256 7.45973 5.01856 5.40574 5.46056 3.94374C5.90256 2.48174 9.13356 2.16474 12.6776 3.23674C16.2216 4.30874 18.7356 6.36274 18.2936 7.82474Z" fill="white"/>
</g>
</svg>
