<svg width="143" height="193" viewBox="0 0 143 193" fill="none" xmlns="http://www.w3.org/2000/svg">
<g opacity="0.4">
<path d="M141.772 190.746C131.84 186.281 122.33 180.915 113.304 174.827C111.534 169.845 110.158 164.726 109.164 159.531C108.969 158.519 107.403 158.844 107.598 159.856C108.475 164.447 109.681 168.959 111.154 173.391C110.843 173.175 110.52 172.979 110.211 172.761C100.241 165.755 90.9395 157.809 82.4664 149.052C81.8127 148.377 81.1745 147.688 80.5324 147.003C80.5305 146.99 80.5344 146.98 80.5324 146.968C79.1627 140.542 78.0927 134.057 77.3241 127.53C77.2035 126.508 75.6373 126.837 75.7579 127.855C76.4272 133.526 77.3358 139.164 78.4584 144.764C71.3375 136.94 64.8548 128.534 59.1425 119.629C57.8506 117.615 56.6112 115.57 55.3972 113.51C53.6909 105.373 53.1909 97.0458 53.9166 88.7615C54.0061 87.7342 52.4107 87.633 52.3192 88.6583C51.7141 95.5691 51.9632 102.531 53.0274 109.379C48.4533 101.167 44.4648 92.6254 41.1261 83.8371C36.3594 71.2841 34.5189 65.9765 32.4779 52.7036C32.2795 51.4097 32.1063 50.112 31.9332 48.8124C31.9429 48.7987 31.9565 48.7968 31.9662 48.7832C35.2874 43.4658 37.7797 37.666 39.3265 31.5899C39.5794 30.5957 38.0638 30.0801 37.8108 31.0801C36.4081 36.5881 34.2037 41.8373 31.3067 46.7208C28.5342 41.7576 25.7598 36.7924 22.9873 31.8292C22.4873 30.9342 21.0592 31.656 21.5631 32.5588C24.4465 37.7205 27.3299 42.8821 30.2133 48.0438C31.9293 61.486 33.4663 66.9707 37.949 79.7572C40.2117 86.2127 42.813 92.5476 45.7372 98.7288C38.9821 96.4525 32.978 92.283 28.5225 86.6972C27.8805 85.8917 26.6917 86.9637 27.3338 87.7673C32.2717 93.9582 39.1105 98.5323 46.7159 100.741H46.7198C48.9319 105.28 51.3211 109.729 53.8776 114.084C53.8796 114.091 53.8815 114.101 53.8835 114.109C53.9244 114.303 54.0255 114.434 54.1461 114.533C54.5353 115.191 54.9166 115.852 55.3135 116.506C58.9265 122.444 62.8741 128.176 67.1097 133.685C61.6114 132.639 56.0587 131.693 50.6654 130.228C49.6732 129.958 49.1596 131.473 50.1557 131.744C56.1968 133.386 62.4383 134.38 68.5787 135.582C71.6858 139.52 74.9408 143.342 78.3495 147.023C83.2251 152.289 88.4024 157.276 93.8306 161.973C89.5912 162.159 85.377 162.724 81.2484 163.72C80.2503 163.961 80.5694 165.529 81.5733 165.286C86.0755 164.198 90.6768 163.589 95.3093 163.494C95.3988 163.492 95.4708 163.465 95.5447 163.442C98.8562 166.239 102.255 168.934 105.742 171.506C115.573 178.753 126.081 185.059 137.099 190.33C138.48 190.991 139.871 191.633 141.268 192.262C142.202 192.686 142.704 191.166 141.772 190.746Z" fill="#BDDBFF"/>
<path d="M111.112 167.477C103.963 169.539 86.8227 132.602 103.58 127.937C120.338 123.273 116.446 165.936 111.112 167.477Z" fill="#BDDBFF"/>
<path d="M77.7289 133.255C70.3395 134.113 59.5122 94.8589 76.8087 93.0144C94.1031 91.1719 83.2447 132.615 77.7289 133.255Z" fill="#BDDBFF"/>
<path d="M53.0405 94.9072C45.6355 94.2029 43.2424 53.5515 60.5408 55.3609C77.8392 57.1703 58.568 95.4326 53.0405 94.9072Z" fill="#BDDBFF"/>
<path d="M36.9702 41.7185C29.5652 41.0142 27.1721 0.364711 44.4705 2.17218C61.7689 3.97965 42.4996 42.2458 36.9702 41.7185Z" fill="#BDDBFF"/>
<path d="M86.816 164.933C87.2421 157.506 47.4214 148.986 46.5907 166.361C45.7599 183.735 86.4989 170.476 86.816 164.933Z" fill="#BDDBFF"/>
<path d="M54.7437 131.423C58.0337 124.75 24.6958 101.367 17.1507 117.041C9.60564 132.713 52.2883 136.404 54.7437 131.423Z" fill="#BDDBFF"/>
<path d="M29.7571 89.9352C35.7768 85.5653 17.1826 49.3382 3.20346 59.6869C-10.7777 70.0355 25.2627 93.196 29.7571 89.9352Z" fill="#BDDBFF"/>
<path d="M23.6609 36.3277C30.523 33.454 20.7191 -6.07092 4.73984 0.80096C-11.2394 7.67284 18.54 38.4737 23.6609 36.3277Z" fill="#BDDBFF"/>
</g>
</svg>
