<svg width="167" height="175" viewBox="0 0 167 175" fill="none" xmlns="http://www.w3.org/2000/svg">
<g opacity="0.4">
<path d="M0.607251 173.263C11.061 170.218 21.2248 166.222 31.0093 161.446C33.4549 156.757 35.527 151.877 37.2313 146.871C37.564 145.896 39.0699 146.433 38.7372 147.41C37.2313 151.834 35.4102 156.136 33.3382 160.321C33.6767 160.15 34.023 160 34.3596 159.827C45.2044 154.272 55.5181 147.692 65.1235 140.196C65.8648 139.618 66.5925 139.022 67.324 138.435C67.3279 138.423 67.324 138.412 67.3298 138.4C69.577 132.225 71.5363 125.952 73.2036 119.596C73.4644 118.599 74.9702 119.144 74.7095 120.135C73.26 125.66 71.5771 131.118 69.6898 136.507C77.8263 129.746 85.4123 122.321 92.3056 114.294C93.864 112.479 95.3757 110.626 96.8641 108.755C99.6833 100.933 101.333 92.756 101.763 84.4521C101.816 83.4229 103.411 83.5436 103.359 84.5708C103.001 91.4991 101.786 98.3593 99.7825 104.992C105.452 97.4936 110.586 89.5885 115.11 81.3469C121.571 69.576 124.13 64.5739 127.994 51.7154C128.371 50.4605 128.721 49.1997 129.074 47.939C129.066 47.9254 129.052 47.9195 129.044 47.9059C126.492 42.18 124.83 36.0883 124.14 29.8585C124.027 28.839 125.599 28.5393 125.712 29.5627C126.338 35.2128 127.793 40.7169 129.982 45.9545C133.418 41.4232 136.852 36.8918 140.286 32.3605C140.905 31.5434 142.22 32.4559 141.596 33.2808C138.023 37.993 134.453 42.7053 130.881 47.4156C127.317 60.4881 125.035 65.7082 118.822 77.7495C115.686 83.8276 112.232 89.7423 108.477 95.4585C115.484 94.1413 122.007 90.8435 127.194 85.9308C127.941 85.2226 128.97 86.4484 128.223 87.1566C122.474 92.6023 115.067 96.1841 107.228 97.3165H107.224C104.405 101.503 101.423 105.579 98.2844 109.537C98.2825 109.545 98.2786 109.554 98.2766 109.562C98.2085 109.749 98.0918 109.864 97.9576 109.947C97.4809 110.545 97.012 111.148 96.5275 111.739C92.1246 117.119 87.4221 122.248 82.4627 127.117C88.0524 126.843 93.683 126.678 99.228 125.973C100.248 125.845 100.545 127.417 99.5238 127.545C93.3153 128.333 86.996 128.452 80.7467 128.793C77.124 132.262 73.369 135.594 69.4836 138.768C63.925 143.307 58.1057 147.529 52.0783 151.428C56.2516 152.2 60.3471 153.342 64.2967 154.904C65.252 155.282 64.7188 156.79 63.7577 156.41C59.4501 154.708 54.9772 153.467 50.4031 152.731C50.3155 152.718 50.2474 152.681 50.1774 152.646C46.5099 154.957 42.7705 157.154 38.961 159.218C28.2212 165.031 16.9367 169.819 5.29617 173.51C3.83696 173.973 2.36997 174.417 0.901039 174.845C-0.0873284 175.123 -0.373334 173.549 0.607251 173.263Z" fill="#BDDBFF"/>
<path d="M34.1996 154.47C40.9917 157.503 63.0899 123.299 47.1417 116.357C31.1936 109.413 29.1293 152.205 34.1996 154.47Z" fill="#BDDBFF"/>
<path d="M72.0115 125.21C79.2102 127.084 95.3782 89.711 78.5059 85.4871C61.6317 81.2632 66.6377 123.812 72.0115 125.21Z" fill="#BDDBFF"/>
<path d="M101.776 90.6558C109.208 90.9846 117.217 51.0588 99.8326 50.4518C82.4486 49.8448 96.2274 90.4107 101.776 90.6558Z" fill="#BDDBFF"/>
<path d="M125.061 40.2107C132.493 40.5395 140.501 0.613774 123.117 0.00674527C105.733 -0.600284 119.514 39.9655 125.061 40.2107Z" fill="#BDDBFF"/>
<path d="M58.6055 155.318C59.2145 147.904 99.8309 144.989 98.2433 162.311C96.6576 179.633 58.1522 160.852 58.6055 155.318Z" fill="#BDDBFF"/>
<path d="M95.0257 126.582C92.6929 119.518 128.953 100.986 134.251 117.553C139.549 134.12 96.767 131.855 95.0257 126.582Z" fill="#BDDBFF"/>
<path d="M125.521 88.9618C120.165 83.8001 143.604 50.501 156.015 62.6883C168.424 74.8756 129.519 92.8141 125.521 88.9618Z" fill="#BDDBFF"/>
<path d="M138.995 36.7164C132.598 32.9186 147.789 -4.8631 162.661 4.15867C177.531 13.1804 143.769 39.5512 138.995 36.7164Z" fill="#BDDBFF"/>
</g>
</svg>
