<svg width="36" height="32" viewBox="0 0 36 32" fill="none" xmlns="http://www.w3.org/2000/svg">
<path d="M34.4856 6.7968C33.2006 3.9078 30.5646 1.5128 27.4336 1.0648C24.8646 0.697803 22.1856 1.68379 20.3056 3.47279C18.4256 5.26179 17.3236 7.78782 17.0556 10.3688C15.2426 8.51182 12.8096 7.21679 10.2246 6.98179C7.63957 6.74779 4.92757 7.6378 3.14257 9.5208C0.966573 11.8158 0.387579 15.3298 1.17458 18.3928C1.96158 21.4558 3.95757 24.0958 6.32257 26.1948C11.4106 30.7108 17.7636 32.5338 24.5316 31.8418C30.2656 28.1818 34.1126 22.8068 35.2966 16.1078C35.8456 12.9948 35.7706 9.6868 34.4856 6.7968Z" fill="#D35D57"/>
<path opacity="0.5" d="M8.46101 15.4628C8.20101 18.0678 6.67201 20.0488 5.04601 19.8868C3.42001 19.7248 2.31301 17.4808 2.57301 14.8748C2.83301 12.2698 4.36201 10.2888 5.98801 10.4508C7.61301 10.6138 8.72101 12.8578 8.46101 15.4628Z" fill="white"/>
</svg>
