<svg width="168" height="166" viewBox="0 0 168 166" fill="none" xmlns="http://www.w3.org/2000/svg">
<rect width="4.53305" height="4.53305" rx="1.34409" fill="#004AAD"/>
<rect x="18.1328" width="4.53305" height="4.53305" rx="1.34409" fill="#004AAD"/>
<rect x="36.2656" width="4.53305" height="4.53305" rx="1.34409" fill="#004AAD"/>
<rect x="54.3984" width="4.53305" height="4.53305" rx="1.34409" fill="#004AAD"/>
<rect x="72.5312" width="4.53305" height="4.53305" rx="1.34409" fill="#004AAD"/>
<rect x="90.6641" width="4.53305" height="4.53305" rx="1.34409" fill="#004AAD"/>
<rect x="108.797" width="4.53305" height="4.53305" rx="1.34409" fill="#004AAD"/>
<rect x="126.93" width="4.53305" height="4.53305" rx="1.34409" fill="#004AAD"/>
<rect x="145.059" width="4.53305" height="4.53305" rx="1.34409" fill="#004AAD"/>
<rect x="163.188" width="4.53305" height="4.53305" rx="1.34409" fill="#004AAD"/>
<rect y="18.1322" width="4.53305" height="4.53305" rx="1.34409" fill="#004AAD"/>
<rect x="18.1328" y="18.1322" width="4.53305" height="4.53305" rx="1.34409" fill="#004AAD"/>
<rect x="36.2656" y="18.1322" width="4.53305" height="4.53305" rx="1.34409" fill="#004AAD"/>
<rect x="54.3984" y="18.1322" width="4.53305" height="4.53305" rx="1.34409" fill="#004AAD"/>
<rect x="72.5312" y="18.1322" width="4.53305" height="4.53305" rx="1.34409" fill="#004AAD"/>
<rect x="90.6641" y="18.1322" width="4.53305" height="4.53305" rx="1.34409" fill="#004AAD"/>
<rect x="108.797" y="18.1322" width="4.53305" height="4.53305" rx="1.34409" fill="#004AAD"/>
<rect x="126.93" y="18.1322" width="4.53305" height="4.53305" rx="1.34409" fill="#004AAD"/>
<rect x="145.059" y="18.1322" width="4.53305" height="4.53305" rx="1.34409" fill="#004AAD"/>
<rect x="163.188" y="18.1322" width="4.53305" height="4.53305" rx="1.34409" fill="#004AAD"/>
<rect y="36.2645" width="4.53305" height="4.53305" rx="1.34409" fill="#004AAD"/>
<rect x="18.1328" y="36.2645" width="4.53305" height="4.53305" rx="1.34409" fill="#004AAD"/>
<rect x="36.2656" y="36.2645" width="4.53305" height="4.53305" rx="1.34409" fill="#004AAD"/>
<rect x="54.3984" y="36.2645" width="4.53305" height="4.53305" rx="1.34409" fill="#004AAD"/>
<rect x="72.5312" y="36.2645" width="4.53305" height="4.53305" rx="1.34409" fill="#004AAD"/>
<rect x="90.6641" y="36.2645" width="4.53305" height="4.53305" rx="1.34409" fill="#004AAD"/>
<rect x="108.797" y="36.2645" width="4.53305" height="4.53305" rx="1.34409" fill="#004AAD"/>
<rect x="126.93" y="36.2645" width="4.53305" height="4.53305" rx="1.34409" fill="#004AAD"/>
<rect x="145.059" y="36.2645" width="4.53305" height="4.53305" rx="1.34409" fill="#004AAD"/>
<rect x="163.188" y="36.2645" width="4.53305" height="4.53305" rx="1.34409" fill="#004AAD"/>
<rect y="54.3966" width="4.53305" height="4.53305" rx="1.34409" fill="#004AAD"/>
<rect x="18.1328" y="54.3966" width="4.53305" height="4.53305" rx="1.34409" fill="#004AAD"/>
<rect x="36.2656" y="54.3966" width="4.53305" height="4.53305" rx="1.34409" fill="#004AAD"/>
<rect x="54.3984" y="54.3966" width="4.53305" height="4.53305" rx="1.34409" fill="#004AAD"/>
<rect x="72.5312" y="54.3966" width="4.53305" height="4.53305" rx="1.34409" fill="#004AAD"/>
<rect x="90.6641" y="54.3966" width="4.53305" height="4.53305" rx="1.34409" fill="#004AAD"/>
<rect x="108.797" y="54.3966" width="4.53305" height="4.53305" rx="1.34409" fill="#004AAD"/>
<rect x="126.93" y="54.3966" width="4.53305" height="4.53305" rx="1.34409" fill="#004AAD"/>
<rect x="145.059" y="54.3966" width="4.53305" height="4.53305" rx="1.34409" fill="#004AAD"/>
<rect x="163.188" y="54.3966" width="4.53305" height="4.53305" rx="1.34409" fill="#004AAD"/>
<rect y="72.5288" width="4.53305" height="4.53305" rx="1.34409" fill="#004AAD"/>
<rect x="18.1328" y="72.5288" width="4.53305" height="4.53305" rx="1.34409" fill="#004AAD"/>
<rect x="36.2656" y="72.5288" width="4.53305" height="4.53305" rx="1.34409" fill="#004AAD"/>
<rect x="54.3984" y="72.5288" width="4.53305" height="4.53305" rx="1.34409" fill="#004AAD"/>
<rect x="72.5312" y="72.5288" width="4.53305" height="4.53305" rx="1.34409" fill="#004AAD"/>
<rect x="90.6641" y="72.5288" width="4.53305" height="4.53305" rx="1.34409" fill="#004AAD"/>
<rect x="108.797" y="72.5288" width="4.53305" height="4.53305" rx="1.34409" fill="#004AAD"/>
<rect x="126.93" y="72.5288" width="4.53305" height="4.53305" rx="1.34409" fill="#004AAD"/>
<rect x="145.059" y="72.5288" width="4.53305" height="4.53305" rx="1.34409" fill="#004AAD"/>
<rect x="163.188" y="72.5288" width="4.53305" height="4.53305" rx="1.34409" fill="#004AAD"/>
<rect y="90.661" width="4.53305" height="4.53305" rx="1.34409" fill="#004AAD"/>
<rect x="18.1328" y="90.661" width="4.53305" height="4.53305" rx="1.34409" fill="#004AAD"/>
<rect x="36.2656" y="90.661" width="4.53305" height="4.53305" rx="1.34409" fill="#004AAD"/>
<rect x="54.3984" y="90.661" width="4.53305" height="4.53305" rx="1.34409" fill="#004AAD"/>
<rect x="72.5312" y="90.661" width="4.53305" height="4.53305" rx="1.34409" fill="#004AAD"/>
<rect x="90.6641" y="90.661" width="4.53305" height="4.53305" rx="1.34409" fill="#004AAD"/>
<rect x="108.797" y="90.661" width="4.53305" height="4.53305" rx="1.34409" fill="#004AAD"/>
<rect x="126.93" y="90.661" width="4.53305" height="4.53305" rx="1.34409" fill="#004AAD"/>
<rect x="145.059" y="90.661" width="4.53305" height="4.53305" rx="1.34409" fill="#004AAD"/>
<rect x="163.188" y="90.661" width="4.53305" height="4.53305" rx="1.34409" fill="#004AAD"/>
<rect y="108.793" width="4.53305" height="4.53305" rx="1.34409" fill="#004AAD"/>
<rect y="126.281" width="4.53305" height="4.53305" rx="1.34409" fill="#004AAD"/>
<rect y="143.769" width="4.53305" height="4.53305" rx="1.34409" fill="#004AAD"/>
<rect y="161.257" width="4.53305" height="4.53305" rx="1.34409" fill="#004AAD"/>
<rect x="18.1328" y="108.793" width="4.53305" height="4.53305" rx="1.34409" fill="#004AAD"/>
<rect x="18.1328" y="126.281" width="4.53305" height="4.53305" rx="1.34409" fill="#004AAD"/>
<rect x="18.1328" y="143.769" width="4.53305" height="4.53305" rx="1.34409" fill="#004AAD"/>
<rect x="18.1328" y="161.257" width="4.53305" height="4.53305" rx="1.34409" fill="#004AAD"/>
<rect x="36.2656" y="108.793" width="4.53305" height="4.53305" rx="1.34409" fill="#004AAD"/>
<rect x="36.2656" y="126.281" width="4.53305" height="4.53305" rx="1.34409" fill="#004AAD"/>
<rect x="36.2656" y="143.769" width="4.53305" height="4.53305" rx="1.34409" fill="#004AAD"/>
<rect x="36.2656" y="161.257" width="4.53305" height="4.53305" rx="1.34409" fill="#004AAD"/>
<rect x="54.3984" y="108.793" width="4.53305" height="4.53305" rx="1.34409" fill="#004AAD"/>
<rect x="54.3984" y="126.281" width="4.53305" height="4.53305" rx="1.34409" fill="#004AAD"/>
<rect x="54.3984" y="143.769" width="4.53305" height="4.53305" rx="1.34409" fill="#004AAD"/>
<rect x="54.3984" y="161.257" width="4.53305" height="4.53305" rx="1.34409" fill="#004AAD"/>
<rect x="72.5312" y="108.793" width="4.53305" height="4.53305" rx="1.34409" fill="#004AAD"/>
<rect x="72.5312" y="126.281" width="4.53305" height="4.53305" rx="1.34409" fill="#004AAD"/>
<rect x="72.5312" y="143.769" width="4.53305" height="4.53305" rx="1.34409" fill="#004AAD"/>
<rect x="72.5312" y="161.257" width="4.53305" height="4.53305" rx="1.34409" fill="#004AAD"/>
<rect x="90.6641" y="108.793" width="4.53305" height="4.53305" rx="1.34409" fill="#004AAD"/>
<rect x="90.6641" y="126.281" width="4.53305" height="4.53305" rx="1.34409" fill="#004AAD"/>
<rect x="90.6641" y="143.769" width="4.53305" height="4.53305" rx="1.34409" fill="#004AAD"/>
<rect x="90.6641" y="161.257" width="4.53305" height="4.53305" rx="1.34409" fill="#004AAD"/>
<rect x="108.797" y="108.793" width="4.53305" height="4.53305" rx="1.34409" fill="#004AAD"/>
<rect x="108.797" y="126.281" width="4.53305" height="4.53305" rx="1.34409" fill="#004AAD"/>
<rect x="108.797" y="143.769" width="4.53305" height="4.53305" rx="1.34409" fill="#004AAD"/>
<rect x="108.797" y="161.257" width="4.53305" height="4.53305" rx="1.34409" fill="#004AAD"/>
<rect x="126.93" y="108.793" width="4.53305" height="4.53305" rx="1.34409" fill="#004AAD"/>
<rect x="126.93" y="126.281" width="4.53305" height="4.53305" rx="1.34409" fill="#004AAD"/>
<rect x="126.93" y="143.769" width="4.53305" height="4.53305" rx="1.34409" fill="#004AAD"/>
<rect x="126.93" y="161.257" width="4.53305" height="4.53305" rx="1.34409" fill="#004AAD"/>
<rect x="145.059" y="108.793" width="4.53305" height="4.53305" rx="1.34409" fill="#004AAD"/>
<rect x="145.059" y="126.281" width="4.53305" height="4.53305" rx="1.34409" fill="#004AAD"/>
<rect x="145.059" y="143.769" width="4.53305" height="4.53305" rx="1.34409" fill="#004AAD"/>
<rect x="145.059" y="161.257" width="4.53305" height="4.53305" rx="1.34409" fill="#004AAD"/>
<rect x="163.188" y="108.793" width="4.53305" height="4.53305" rx="1.34409" fill="#004AAD"/>
<rect x="163.188" y="126.281" width="4.53305" height="4.53305" rx="1.34409" fill="#004AAD"/>
<rect x="163.188" y="143.769" width="4.53305" height="4.53305" rx="1.34409" fill="#004AAD"/>
<rect x="163.188" y="161.257" width="4.53305" height="4.53305" rx="1.34409" fill="#004AAD"/>
</svg>
