<svg width="1463" height="1122" viewBox="0 0 1463 1122" fill="none" xmlns="http://www.w3.org/2000/svg">
<mask id="mask0_807_14188" style="mask-type:luminance" maskUnits="userSpaceOnUse" x="0" y="0" width="1463" height="1122">
<path d="M0 0H1463V622C1463 898.142 1239.14 1122 963 1122H0V0Z" fill="white"/>
</mask>
<g mask="url(#mask0_807_14188)">
<path d="M0 0H1463V622C1463 898.142 1239.14 1122 963 1122H0V0Z" fill="#004AAD"/>
<g opacity="0.1">
<path d="M569.505 1071.4C630.754 1071.4 680.405 1021.75 680.405 960.5C680.405 899.252 630.754 849.6 569.505 849.6C508.257 849.6 458.605 899.252 458.605 960.5C458.605 1021.75 508.257 1071.4 569.505 1071.4Z" stroke="white" stroke-width="2"/>
<path d="M569.505 1145.33C671.585 1145.33 754.338 1062.58 754.338 960.499C754.338 858.419 671.585 775.666 569.505 775.666C467.424 775.666 384.672 858.419 384.672 960.499C384.672 1062.58 467.424 1145.33 569.505 1145.33Z" stroke="white" stroke-width="2"/>
<path d="M569.505 1219.27C712.418 1219.27 828.272 1103.41 828.272 960.5C828.272 817.587 712.418 701.733 569.505 701.733C426.592 701.733 310.738 817.587 310.738 960.5C310.738 1103.41 426.592 1219.27 569.505 1219.27Z" stroke="white" stroke-width="2"/>
<path d="M569.493 1293.2C753.238 1293.2 902.193 1144.25 902.193 960.5C902.193 776.755 753.238 627.8 569.493 627.8C385.748 627.8 236.793 776.755 236.793 960.5C236.793 1144.25 385.748 1293.2 569.493 1293.2Z" stroke="white" stroke-width="2"/>
<path d="M569.496 1367.13C794.073 1367.13 976.129 1185.08 976.129 960.5C976.129 735.923 794.073 553.867 569.496 553.867C344.919 553.867 162.863 735.923 162.863 960.5C162.863 1185.08 344.919 1367.13 569.496 1367.13Z" stroke="white" stroke-width="2"/>
<path d="M569.499 1441.07C834.908 1441.07 1050.07 1225.91 1050.07 960.5C1050.07 695.09 834.908 479.933 569.499 479.933C304.089 479.933 88.9316 695.09 88.9316 960.5C88.9316 1225.91 304.089 1441.07 569.499 1441.07Z" stroke="white" stroke-width="2"/>
<path d="M569.5 1515C875.742 1515 1124 1266.74 1124 960.5C1124 654.258 875.742 406 569.5 406C263.258 406 15 654.258 15 960.5C15 1266.74 263.258 1515 569.5 1515Z" stroke="white" stroke-width="2"/>
</g>
</g>
</svg>
