<svg width="36" height="50" viewBox="0 0 36 50" fill="none" xmlns="http://www.w3.org/2000/svg">
<path d="M29.8742 26.2402C29.8555 22.6563 31.4117 19.9512 34.5617 17.959C32.7992 15.332 30.1367 13.8867 26.6211 13.6035C23.293 13.3301 19.6555 15.625 18.3242 15.625C16.918 15.625 13.693 13.7012 11.1617 13.7012C5.93047 13.7891 0.371094 18.0469 0.371094 26.709C0.371094 29.2676 0.821094 31.9108 1.72109 34.6387C2.92109 38.2227 7.25234 47.0117 11.7711 46.8652C14.1336 46.8066 15.8023 45.1172 18.8773 45.1172C21.8586 45.1172 23.4055 46.8652 26.0398 46.8652C30.5961 46.7969 34.5148 38.8086 35.6586 35.2148C29.5461 32.2168 29.8742 26.4258 29.8742 26.2402ZM24.568 10.2051C27.1273 7.04102 26.893 4.16016 26.818 3.125C24.5586 3.26172 21.943 4.72656 20.4523 6.5332C18.8117 8.4668 17.8461 10.8594 18.0523 13.5547C20.4992 13.75 22.7305 12.4414 24.568 10.2051Z" fill="black"/>
</svg>
