<svg width="37" height="42" viewBox="0 0 37 42" fill="none" xmlns="http://www.w3.org/2000/svg">
<g clip-path="url(#clip0_910_2601)">
<path d="M17.2783 20.0459L0.152344 38.0316C0.344666 38.7148 0.690276 39.3448 1.16275 39.8736C1.63523 40.4024 2.22207 40.8159 2.8784 41.0825C3.53474 41.3491 4.2432 41.4617 4.94962 41.4118C5.65605 41.3619 6.34174 41.1508 6.95427 40.7945L26.2242 29.7935L17.2783 20.0459Z" fill="#EA4335"/>
<path d="M34.5956 16.989L26.2626 12.2046L16.8828 20.4553L26.3008 29.7679L34.5703 25.0348C35.3028 24.6503 35.9164 24.0722 36.3446 23.363C36.7727 22.6538 36.9991 21.8407 36.9991 21.0118C36.9991 20.1829 36.7727 19.3698 36.3446 18.6607C35.9164 17.9515 35.3028 17.3734 34.5703 16.9888L34.5956 16.989Z" fill="#FBBC04"/>
<path d="M0.153251 3.90283C0.0497342 4.28644 -0.0017962 4.68227 4.7787e-05 5.07966V36.8549C0.00112105 37.2522 0.0526019 37.6477 0.153251 38.0319L17.8663 20.5068L0.153251 3.90283Z" fill="#4285F4"/>
<path d="M17.4059 20.9673L26.2625 12.2047L7.01816 1.15239C6.2941 0.72733 5.4706 0.502229 4.63151 0.500009C2.54925 0.495952 0.718617 1.88126 0.152344 3.88997L17.4059 20.9673Z" fill="#34A853"/>
</g>
<defs>
<clipPath id="clip0_910_2601">
<rect width="37" height="41" fill="white" transform="translate(0 0.5)"/>
</clipPath>
</defs>
</svg>
