<svg width="404" height="44" viewBox="0 0 404 44" fill="none" xmlns="http://www.w3.org/2000/svg">
<path d="M12.2832 33.4085H24.1237V43.5763H0V0.726274H12.2832V33.4085Z" fill="#3AB7F7"/>
<path d="M47.9077 44C44.2191 44 40.8255 43.0518 37.7271 41.1554C34.6655 39.2591 32.231 36.6364 30.4235 33.2875C28.6161 29.9386 27.7124 26.166 27.7124 21.9697C27.7124 17.7735 28.6161 14.0009 30.4235 10.652C32.231 7.30307 34.6655 4.7006 37.7271 2.84457C40.8255 0.948189 44.2191 0 47.9077 0C51.5964 0 54.9715 0.948189 58.0331 2.84457C61.0946 4.7006 63.5107 7.30307 65.2812 10.652C67.0887 14.0009 67.9924 17.7735 67.9924 21.9697C67.9924 26.166 67.0887 29.9386 65.2812 33.2875C63.5107 36.6364 61.0762 39.2591 57.9777 41.1554C54.9161 43.0518 51.5595 44 47.9077 44ZM47.9077 31.4718C50.3422 31.4718 52.2234 30.6245 53.5513 28.9298C54.8793 27.1949 55.5432 24.8748 55.5432 21.9697C55.5432 19.0243 54.8793 16.7043 53.5513 15.0096C52.2234 13.2746 50.3422 12.4072 47.9077 12.4072C45.4363 12.4072 43.5367 13.2746 42.2088 15.0096C40.8809 16.7043 40.2169 19.0243 40.2169 21.9697C40.2169 24.8748 40.8809 27.1949 42.2088 28.9298C43.5367 30.6245 45.4363 31.4718 47.9077 31.4718Z" fill="#3AB7F7"/>
<path d="M72.1469 22.0908C72.1469 17.8542 72.9215 14.0816 74.4707 10.773C76.0568 7.46447 78.3069 4.90234 81.2209 3.08666C84.135 1.23063 87.5654 0.302613 91.5123 0.302613C94.9058 0.302613 97.9305 1.00871 100.586 2.42091C103.279 3.79276 105.455 5.74966 107.115 8.29161C108.812 10.8336 109.937 13.7992 110.49 17.1884H97.5432C96.953 15.7762 96.1046 14.6868 94.998 13.9202C93.9283 13.1133 92.6926 12.7098 91.2909 12.7098C89.2253 12.7098 87.5839 13.5571 86.3666 15.2517C85.1862 16.9464 84.596 19.226 84.596 22.0908C84.596 24.9555 85.1862 27.2352 86.3666 28.9298C87.5839 30.6245 89.2253 31.4718 91.2909 31.4718C92.6926 31.4718 93.9283 31.0885 94.998 30.3219C96.1046 29.5149 96.953 28.4053 97.5432 26.9931H110.49C109.937 30.3824 108.812 33.348 107.115 35.89C105.455 38.4319 103.279 40.409 100.586 41.8212C97.9305 43.193 94.9058 43.879 91.5123 43.879C87.5654 43.879 84.135 42.9711 81.2209 41.1554C78.3069 39.2994 76.0568 36.7171 74.4707 33.4085C72.9215 30.1 72.1469 26.3274 72.1469 22.0908Z" fill="#3AB7F7"/>
<path d="M127.749 0.726274V24.8748C127.749 26.8519 128.137 28.4255 128.911 29.5956C129.723 30.7254 131.014 31.2902 132.784 31.2902C134.555 31.2902 135.864 30.7254 136.713 29.5956C137.561 28.4255 137.985 26.8519 137.985 24.8748V0.726274H150.213V24.8748C150.213 28.95 149.439 32.4402 147.889 35.3453C146.34 38.21 144.219 40.3686 141.526 41.8212C138.834 43.2737 135.827 44 132.508 44C129.188 44 126.237 43.2737 123.655 41.8212C121.11 40.3686 119.118 38.21 117.679 35.3453C116.241 32.4805 115.521 28.9904 115.521 24.8748V0.726274H127.749Z" fill="#3AB7F7"/>
<path d="M203.426 0.726274V43.5763H191.199V22.2118L185.168 43.5763H174.655L168.624 22.2118V43.5763H156.341V0.726274H171.391L180.022 26.4484L188.432 0.726274H203.426Z" fill="#3AB7F7"/>
<path d="M257.599 43.5763H245.316L232.314 22.0303V43.5763H220.031V0.726274H232.314L245.316 22.6355V0.726274H257.599V43.5763Z" fill="#004AAD"/>
<path d="M275.985 0.726274V24.8748C275.985 26.8519 276.373 28.4255 277.147 29.5956C277.959 30.7254 279.25 31.2902 281.02 31.2902C282.791 31.2902 284.1 30.7254 284.949 29.5956C285.797 28.4255 286.221 26.8519 286.221 24.8748V0.726274H298.449V24.8748C298.449 28.95 297.675 32.4402 296.125 35.3453C294.576 38.21 292.455 40.3686 289.762 41.8212C287.07 43.2737 284.063 44 280.744 44C277.424 44 274.473 43.2737 271.891 41.8212C269.346 40.3686 267.354 38.21 265.915 35.3453C264.477 32.4805 263.757 28.9904 263.757 24.8748V0.726274H275.985Z" fill="#004AAD"/>
<path d="M324.274 43.5763L316.915 28.2036H316.86V43.5763H304.577V0.726274H322.836C326.008 0.726274 328.719 1.35167 330.969 2.60248C333.219 3.81293 334.898 5.48739 336.004 7.62586C337.148 9.72398 337.719 12.1045 337.719 14.7675C337.719 17.6323 336.982 20.1742 335.506 22.3934C334.068 24.6126 331.984 26.2063 329.254 27.1747L337.775 43.5763H324.274ZM316.86 19.2462H321.729C322.909 19.2462 323.795 18.9638 324.385 18.3989C324.975 17.7937 325.27 16.8657 325.27 15.6149C325.27 14.4851 324.957 13.5974 324.33 12.9519C323.739 12.3063 322.873 11.9835 321.729 11.9835H316.86V19.2462Z" fill="#004AAD"/>
<path d="M357.8 44C353.115 44 349.242 42.8097 346.181 40.4292C343.156 38.0083 341.514 34.4778 341.256 29.8377H354.314C354.498 32.299 355.494 33.5296 357.302 33.5296C357.966 33.5296 358.519 33.3682 358.962 33.0454C359.441 32.6823 359.681 32.1376 359.681 31.4113C359.681 30.4026 359.183 29.5956 358.187 28.9904C357.191 28.3448 355.642 27.6185 353.539 26.8116C351.031 25.8432 348.947 24.895 347.287 23.967C345.664 23.039 344.262 21.6873 343.082 19.912C341.902 18.1366 341.33 15.8569 341.367 13.0729C341.367 10.2889 342.012 7.92847 343.303 5.99175C344.631 4.01467 346.42 2.52178 348.67 1.51307C350.957 0.504355 353.521 0 356.361 0C361.156 0 364.956 1.21045 367.759 3.63136C370.599 6.05227 372.093 9.46171 372.241 13.8597H359.017C358.98 12.6492 358.703 11.7818 358.187 11.2572C357.671 10.7327 357.044 10.4704 356.306 10.4704C355.789 10.4704 355.365 10.6722 355.033 11.0757C354.701 11.4388 354.535 11.9633 354.535 12.6492C354.535 13.6176 355.015 14.4246 355.974 15.0702C356.97 15.6754 358.537 16.4218 360.677 17.3095C363.148 18.3182 365.177 19.2866 366.763 20.2146C368.386 21.1426 369.788 22.4337 370.968 24.088C372.149 25.7423 372.739 27.8203 372.739 30.3219C372.739 32.9445 372.149 35.3049 370.968 37.403C369.788 39.4608 368.073 41.0747 365.823 42.2448C363.572 43.4149 360.898 44 357.8 44Z" fill="#004AAD"/>
<path d="M390.168 11.4388V16.7043H402.34V26.8116H390.168V32.8638H404V43.5763H377.884V0.726274H404V11.4388H390.168Z" fill="#004AAD"/>
</svg>
