<svg width="24" height="24" viewBox="0 0 24 24" fill="none" xmlns="http://www.w3.org/2000/svg">
<path d="M20.1056 11.6293C20.1056 7.36326 16.6235 3.89477 12.3156 3.89477C8.00776 3.89477 4.52562 7.36326 4.52562 11.6293C4.52562 12.788 4.66877 13.5329 4.84502 14.0792C4.96381 14.4415 5.24717 14.0841 5.38739 13.9526C5.84746 13.5212 6.45701 13.2852 7.08766 13.2943C7.7183 13.3033 8.3208 13.5568 8.76825 14.0013C10.152 15.3763 11.4285 17.2829 9.66508 19.0356C8.71859 19.9762 7.29302 20.3677 6.20827 19.355C4.80801 18.0463 3.5918 16.5233 2.99294 14.681C2.74366 13.9078 2.57812 12.9545 2.57812 11.6283C2.57812 6.27558 6.94345 1.94727 12.3156 1.94727C17.6878 1.94727 22.0531 6.27558 22.0531 11.6293C22.0531 12.9555 21.8886 13.9088 21.6383 14.68C21.0394 16.5233 19.8232 18.0463 18.423 19.354C17.3382 20.3677 15.9127 19.9772 14.9662 19.0356C13.2037 17.2829 14.4793 15.3763 15.862 14.0013C16.3095 13.5565 16.9122 13.3029 17.5431 13.2938C18.174 13.2847 18.7837 13.5209 19.2439 13.9526C19.5136 14.2058 19.647 14.5077 19.7862 14.0792C19.9625 13.5339 20.1056 12.7871 20.1056 11.6293Z" fill="white"/>
</svg>
