<svg width="212" height="98" viewBox="0 0 212 98" fill="none" xmlns="http://www.w3.org/2000/svg">
<path d="M109 0H212V98H109V0Z" fill="#FBFBFB"/>
<path d="M6.29361 64.3893H12.3604V69.4732H0V48.0482H6.29361V64.3893Z" fill="#34BFFF"/>
<path d="M24.5468 69.6851C22.6568 69.6851 20.918 69.211 19.3304 68.2628C17.7618 67.3146 16.5144 66.0033 15.5883 64.3288C14.6622 62.6543 14.1992 60.768 14.1992 58.6699C14.1992 56.5718 14.6622 54.6855 15.5883 53.0111C16.5144 51.3366 17.7618 50.0354 19.3304 49.1073C20.918 48.1592 22.6568 47.6851 24.5468 47.6851C26.4368 47.6851 28.1661 48.1592 29.7348 49.1073C31.3034 50.0354 32.5414 51.3366 33.4486 53.0111C34.3746 54.6855 34.8377 56.5718 34.8377 58.6699C34.8377 60.768 34.3746 62.6543 33.4486 64.3288C32.5414 66.0033 31.294 67.3146 29.7064 68.2628C28.1377 69.211 26.4179 69.6851 24.5468 69.6851ZM24.5468 63.421C25.7942 63.421 26.758 62.9973 27.4384 62.15C28.1188 61.2825 28.459 60.1225 28.459 58.6699C28.459 57.1972 28.1188 56.0372 27.4384 55.1899C26.758 54.3224 25.7942 53.8886 24.5468 53.8886C23.2805 53.8886 22.3072 54.3224 21.6268 55.1899C20.9464 56.0372 20.6062 57.1972 20.6062 58.6699C20.6062 60.1225 20.9464 61.2825 21.6268 62.15C22.3072 62.9973 23.2805 63.421 24.5468 63.421Z" fill="#34BFFF"/>
<path d="M36.9663 58.7305C36.9663 56.6122 37.3632 54.7259 38.157 53.0716C38.9697 51.4173 40.1226 50.1362 41.6157 49.2284C43.1088 48.3004 44.8664 47.8364 46.8887 47.8364C48.6275 47.8364 50.1773 48.1894 51.538 48.8955C52.9177 49.5814 54.0328 50.5599 54.8833 51.8309C55.7527 53.1018 56.3291 54.5846 56.6126 56.2793H49.9788C49.6764 55.5732 49.2417 55.0285 48.6747 54.6452C48.1266 54.2417 47.4935 54.0399 46.7753 54.0399C45.7169 54.0399 44.8759 54.4636 44.2522 55.3109C43.6474 56.1582 43.345 57.2981 43.345 58.7305C43.345 60.1628 43.6474 61.3027 44.2522 62.15C44.8759 62.9973 45.7169 63.421 46.7753 63.421C47.4935 63.421 48.1266 63.2293 48.6747 62.846C49.2417 62.4425 49.6764 61.8877 49.9788 61.1816H56.6126C56.3291 62.8763 55.7527 64.3591 54.8833 65.63C54.0328 66.901 52.9177 67.8896 51.538 68.5957C50.1773 69.2816 48.6275 69.6245 46.8887 69.6245C44.8664 69.6245 43.1088 69.1706 41.6157 68.2628C40.1226 67.3348 38.9697 66.0436 38.157 64.3893C37.3632 62.735 36.9663 60.8487 36.9663 58.7305Z" fill="#34BFFF"/>
<path d="M65.4557 48.0482V60.1225C65.4557 61.111 65.6542 61.8978 66.051 62.4829C66.4668 63.0477 67.1283 63.3302 68.0355 63.3302C68.9427 63.3302 69.6136 63.0477 70.0483 62.4829C70.483 61.8978 70.7004 61.111 70.7004 60.1225V48.0482H76.9656V60.1225C76.9656 62.1601 76.5688 63.9051 75.775 65.3577C74.9812 66.7901 73.8944 67.8694 72.5148 68.5957C71.1351 69.3219 69.5947 69.6851 67.8938 69.6851C66.1928 69.6851 64.6808 69.3219 63.3578 68.5957C62.0538 67.8694 61.0332 66.7901 60.2961 65.3577C59.559 63.9253 59.1904 62.1802 59.1904 60.1225V48.0482H65.4557Z" fill="#34BFFF"/>
<path d="M104.231 48.0482V69.4732H97.9656V58.791L94.8755 69.4732H89.4891L86.399 58.791V69.4732H80.1054V48.0482H87.8165L92.239 60.9093L96.5481 48.0482H104.231Z" fill="#34BFFF"/>
<path d="M131.988 69.4732H125.694L119.032 58.7002V69.4732H112.738V48.0482H119.032L125.694 59.0028V48.0482H131.988V69.4732Z" fill="#034AB4"/>
<path d="M141.408 48.0482V60.1225C141.408 61.111 141.607 61.8978 142.004 62.4829C142.419 63.0477 143.081 63.3302 143.988 63.3302C144.895 63.3302 145.566 63.0477 146.001 62.4829C146.436 61.8978 146.653 61.111 146.653 60.1225V48.0482H152.918V60.1225C152.918 62.1601 152.521 63.9051 151.728 65.3577C150.934 66.7901 149.847 67.8694 148.467 68.5957C147.088 69.3219 145.547 69.6851 143.846 69.6851C142.145 69.6851 140.633 69.3219 139.31 68.5957C138.006 67.8694 136.986 66.7901 136.249 65.3577C135.512 63.9253 135.143 62.1802 135.143 60.1225V48.0482H141.408Z" fill="#034AB4"/>
<path d="M166.15 69.4732L162.38 61.7868H162.352V69.4732H156.058V48.0482H165.413C167.039 48.0482 168.428 48.3609 169.581 48.9863C170.734 49.5915 171.594 50.4288 172.161 51.498C172.746 52.547 173.039 53.7373 173.039 55.0688C173.039 56.5012 172.661 57.7722 171.905 58.8818C171.168 59.9913 170.1 60.7882 168.702 61.2724L173.068 69.4732H166.15ZM162.352 57.3082H164.846C165.451 57.3082 165.905 57.1669 166.207 56.8845C166.51 56.5819 166.661 56.1179 166.661 55.4925C166.661 54.9276 166.5 54.4838 166.179 54.161C165.876 53.8382 165.432 53.6768 164.846 53.6768H162.352V57.3082Z" fill="#034AB4"/>
<path d="M183.328 69.6851C180.928 69.6851 178.943 69.0899 177.375 67.8996C175.825 66.6892 174.984 64.9239 174.852 62.6039H181.542C181.637 63.8345 182.147 64.4498 183.073 64.4498C183.413 64.4498 183.697 64.3692 183.923 64.2078C184.169 64.0262 184.292 63.7538 184.292 63.3907C184.292 62.8863 184.037 62.4829 183.527 62.1802C183.016 61.8575 182.222 61.4943 181.145 61.0908C179.86 60.6067 178.792 60.1326 177.942 59.6686C177.11 59.2045 176.392 58.5287 175.787 57.641C175.182 56.7534 174.889 55.6135 174.908 54.2215C174.908 52.8295 175.239 51.6493 175.9 50.6809C176.581 49.6924 177.498 48.9459 178.65 48.4416C179.822 47.9372 181.136 47.6851 182.591 47.6851C185.048 47.6851 186.995 48.2903 188.431 49.5007C189.886 50.7112 190.652 52.4159 190.727 54.6149H183.952C183.933 54.0097 183.791 53.5759 183.527 53.3137C183.262 53.0514 182.941 52.9203 182.563 52.9203C182.298 52.9203 182.081 53.0211 181.911 53.2229C181.74 53.4045 181.655 53.6667 181.655 54.0097C181.655 54.4939 181.901 54.8973 182.393 55.2201C182.903 55.5227 183.706 55.896 184.802 56.3398C186.069 56.8442 187.108 57.3283 187.921 57.7923C188.752 58.2564 189.47 58.9019 190.075 59.7291C190.68 60.5562 190.982 61.5952 190.982 62.846C190.982 64.1573 190.68 65.3375 190.075 66.3866C189.47 67.4155 188.592 68.2224 187.439 68.8075C186.286 69.3925 184.916 69.6851 183.328 69.6851Z" fill="#034AB4"/>
<path d="M199.913 53.4045V56.0372H206.15V61.0908H199.913V64.117H207V69.4732H193.619V48.0482H207V53.4045H199.913Z" fill="#034AB4"/>
</svg>
